<mxfile host="app.diagrams.net" modified="2024-05-13T04:04:04.041Z" agent="Mozilla/5.0 (Windows NT 10.0; Win64; x64) AppleWebKit/537.36 (KHTML, like Gecko) Chrome/122.0.0.0 Whale/3.25.232.19 Safari/537.36" etag="DF56m_jcnIQV8tvJMNbS" version="24.3.1" type="github">
  <diagram name="페이지-1" id="2Io9hmtuh51vR7l9z_ly">
    <mxGraphModel dx="4061" dy="2529" grid="1" gridSize="10" guides="1" tooltips="1" connect="1" arrows="1" fold="1" page="1" pageScale="1" pageWidth="827" pageHeight="1169" math="0" shadow="0">
      <root>
        <mxCell id="0" />
        <mxCell id="1" parent="0" />
        <UserObject label="" plantUmlData="{&#xa;  &quot;data&quot;: &quot;@startuml\nstart\n\n:Create a dictionary to store gift counts between friends;\n:Create a dictionary to store gift indices for each friend;\n\nwhile (there are more gift records) is (true)\n:Get the next gift record;\n:Extract the giver and receiver from the record;\n\nif (giver and receiver are the same) then (true)\n:Skip this record;\nelse (false)\nif (giver and receiver exist in the gift counts dictionary) then (true)\n:Increment the gift count from giver to receiver;\nelse (false)\n:Initialize the gift count from giver to receiver as 1;\nendif\n\n\nif (giver exists in the gift indices dictionary) then (true)  \n  :Increment the gift index of the giver;\nelse (false)\n  :Initialize the gift index of the giver as 1;\nendif\n\nif (receiver exists in the gift indices dictionary) then (true)\n  :Decrement the gift index of the receiver;\nelse (false)\n  :Initialize the gift index of the receiver as -1;\nendif\nendif\nendwhile\n\n:Initialize a dictionary to store the number of gifts each friend will receive;\n\nwhile (there are more friend pairs) is (true)\n:Get the next pair of friends;\n:Extract friend1 and friend2 from the pair;\n\nif (friend1 and friend2 have gift counts) then (true)\nif (gift count from friend1 to friend2 &gt; gift count from friend2 to friend1) then (true)\n:Increment the gift count for friend1 in the dictionary;\nelseif (gift count from friend2 to friend1 &gt; gift count from friend1 to friend2) then (true)\n:Increment the gift count for friend2 in the dictionary;\nelse (false)\nif (gift index of friend1 &gt; gift index of friend2) then (true)\n:Increment the gift count for friend2 in the dictionary;\nelseif (gift index of friend2 &gt; gift index of friend1) then (true)\n:Increment the gift count for friend1 in the dictionary;\nelse (false)\n:Do nothing;\nendif\nendif\nelse (false)\nif (gift index of friend1 &gt; gift index of friend2) then (true)\n:Increment the gift count for friend2 in the dictionary;\nelseif (gift index of friend2 &gt; gift index of friend1) then (true)\n:Increment the gift count for friend1 in the dictionary;\nelse (false)\n:Do nothing;\nendif\nendif\nendwhile\n\n:Find the maximum gift count in the dictionary;\n\n:return the maximum gift count;\n\nstop\n@enduml&quot;,&#xa;  &quot;format&quot;: &quot;svg&quot;&#xa;}" id="7wrWzbh-VadVdilDmbnw-1">
          <mxCell style="shape=image;noLabel=1;verticalAlign=top;aspect=fixed;imageAspect=0;image=data:image/svg+xml,PD94bWwgdmVyc2lvbj0iMS4wIiBlbmNvZGluZz0idXMtYXNjaWkiIHN0YW5kYWxvbmU9Im5vIj8+PHN2ZyB4bWxucz0iaHR0cDovL3d3dy53My5vcmcvMjAwMC9zdmciIHhtbG5zOnhsaW5rPSJodHRwOi8vd3d3LnczLm9yZy8xOTk5L3hsaW5rIiBjb250ZW50U3R5bGVUeXBlPSJ0ZXh0L2NzcyIgaGVpZ2h0PSIxNDMycHgiIHByZXNlcnZlQXNwZWN0UmF0aW89Im5vbmUiIHN0eWxlPSJ3aWR0aDoyNzU3cHg7aGVpZ2h0OjE0MzJweDtiYWNrZ3JvdW5kOiNGRkZGRkY7IiB2ZXJzaW9uPSIxLjEiIHZpZXdCb3g9IjAgMCAyNzU3IDE0MzIiIHdpZHRoPSIyNzU3cHgiIHpvb21BbmRQYW49Im1hZ25pZnkiPjxkZWZzLz48Zz48ZWxsaXBzZSBjeD0iMTYyMCIgY3k9IjIwIiBmaWxsPSIjMjIyMjIyIiByeD0iMTAiIHJ5PSIxMCIgc3R5bGU9InN0cm9rZTojMjIyMjIyO3N0cm9rZS13aWR0aDoxLjA7Ii8+PHJlY3QgZmlsbD0iI0YxRjFGMSIgaGVpZ2h0PSIzMi44NDM4IiByeD0iMTIuNSIgcnk9IjEyLjUiIHN0eWxlPSJzdHJva2U6IzE4MTgxODtzdHJva2Utd2lkdGg6MC41OyIgd2lkdGg9IjM4OCIgeD0iMTQyNiIgeT0iNTAiLz48dGV4dCBmaWxsPSIjMDAwMDAwIiBmb250LWZhbWlseT0ic2Fucy1zZXJpZiIgZm9udC1zaXplPSIxMiIgbGVuZ3RoQWRqdXN0PSJzcGFjaW5nIiB0ZXh0TGVuZ3RoPSIzNjgiIHg9IjE0MzYiIHk9IjcxLjM0MzgiPkNyZWF0ZSBhIGRpY3Rpb25hcnkgdG8gc3RvcmUgZ2lmdCBjb3VudHMgYmV0d2VlbiBmcmllbmRzPC90ZXh0PjxyZWN0IGZpbGw9IiNGMUYxRjEiIGhlaWdodD0iMzIuODQzOCIgcng9IjEyLjUiIHJ5PSIxMi41IiBzdHlsZT0ic3Ryb2tlOiMxODE4MTg7c3Ryb2tlLXdpZHRoOjAuNTsiIHdpZHRoPSIzOTMiIHg9IjE0MjMuNSIgeT0iMTAyLjg0MzgiLz48dGV4dCBmaWxsPSIjMDAwMDAwIiBmb250LWZhbWlseT0ic2Fucy1zZXJpZiIgZm9udC1zaXplPSIxMiIgbGVuZ3RoQWRqdXN0PSJzcGFjaW5nIiB0ZXh0TGVuZ3RoPSIzNzMiIHg9IjE0MzMuNSIgeT0iMTI0LjE4NzUiPkNyZWF0ZSBhIGRpY3Rpb25hcnkgdG8gc3RvcmUgZ2lmdCBpbmRpY2VzIGZvciBlYWNoIGZyaWVuZDwvdGV4dD48cmVjdCBmaWxsPSIjRjFGMUYxIiBoZWlnaHQ9IjMyLjg0MzgiIHJ4PSIxMi41IiByeT0iMTIuNSIgc3R5bGU9InN0cm9rZTojMTgxODE4O3N0cm9rZS13aWR0aDowLjU7IiB3aWR0aD0iMTc3IiB4PSIxNTMxLjUiIHk9IjIxMS41ODU5Ii8+PHRleHQgZmlsbD0iIzAwMDAwMCIgZm9udC1mYW1pbHk9InNhbnMtc2VyaWYiIGZvbnQtc2l6ZT0iMTIiIGxlbmd0aEFkanVzdD0ic3BhY2luZyIgdGV4dExlbmd0aD0iMTU3IiB4PSIxNTQxLjUiIHk9IjIzMi45Mjk3Ij5HZXQgdGhlIG5leHQgZ2lmdCByZWNvcmQ8L3RleHQ+PHJlY3QgZmlsbD0iI0YxRjFGMSIgaGVpZ2h0PSIzMi44NDM4IiByeD0iMTIuNSIgcnk9IjEyLjUiIHN0eWxlPSJzdHJva2U6IzE4MTgxODtzdHJva2Utd2lkdGg6MC41OyIgd2lkdGg9IjMyMyIgeD0iMTQ1OC41IiB5PSIyNjQuNDI5NyIvPjx0ZXh0IGZpbGw9IiMwMDAwMDAiIGZvbnQtZmFtaWx5PSJzYW5zLXNlcmlmIiBmb250LXNpemU9IjEyIiBsZW5ndGhBZGp1c3Q9InNwYWNpbmciIHRleHRMZW5ndGg9IjMwMyIgeD0iMTQ2OC41IiB5PSIyODUuNzczNCI+RXh0cmFjdCB0aGUgZ2l2ZXIgYW5kIHJlY2VpdmVyIGZyb20gdGhlIHJlY29yZDwvdGV4dD48cG9seWdvbiBmaWxsPSIjRjFGMUYxIiBwb2ludHM9IjE1MjcsMzE3LjI3MzQsMTcxMywzMTcuMjczNCwxNzI1LDMyOS4yNzM0LDE3MTMsMzQxLjI3MzQsMTUyNywzNDEuMjczNCwxNTE1LDMyOS4yNzM0LDE1MjcsMzE3LjI3MzQiIHN0eWxlPSJzdHJva2U6IzE4MTgxODtzdHJva2Utd2lkdGg6MC41OyIvPjx0ZXh0IGZpbGw9IiMwMDAwMDAiIGZvbnQtZmFtaWx5PSJzYW5zLXNlcmlmIiBmb250LXNpemU9IjExIiBsZW5ndGhBZGp1c3Q9InNwYWNpbmciIHRleHRMZW5ndGg9IjE4NiIgeD0iMTUyNyIgeT0iMzMzLjc4NTIiPmdpdmVyIGFuZCByZWNlaXZlciBhcmUgdGhlIHNhbWU8L3RleHQ+PHRleHQgZmlsbD0iIzAwMDAwMCIgZm9udC1mYW1pbHk9InNhbnMtc2VyaWYiIGZvbnQtc2l6ZT0iMTEiIGxlbmd0aEFkanVzdD0ic3BhY2luZyIgdGV4dExlbmd0aD0iMjQiIHg9IjE0OTEiIHk9IjMyNy44OTg0Ij50cnVlPC90ZXh0Pjx0ZXh0IGZpbGw9IiMwMDAwMDAiIGZvbnQtZmFtaWx5PSJzYW5zLXNlcmlmIiBmb250LXNpemU9IjExIiBsZW5ndGhBZGp1c3Q9InNwYWNpbmciIHRleHRMZW5ndGg9IjMwIiB4PSIxNzI1IiB5PSIzMjcuODk4NCI+ZmFsc2U8L3RleHQ+PHJlY3QgZmlsbD0iI0YxRjFGMSIgaGVpZ2h0PSIzMi44NDM4IiByeD0iMTIuNSIgcnk9IjEyLjUiIHN0eWxlPSJzdHJva2U6IzE4MTgxODtzdHJva2Utd2lkdGg6MC41OyIgd2lkdGg9IjEyNSIgeD0iMTMzNy43NSIgeT0iMzUxLjI3MzQiLz48dGV4dCBmaWxsPSIjMDAwMDAwIiBmb250LWZhbWlseT0ic2Fucy1zZXJpZiIgZm9udC1zaXplPSIxMiIgbGVuZ3RoQWRqdXN0PSJzcGFjaW5nIiB0ZXh0TGVuZ3RoPSIxMDUiIHg9IjEzNDcuNzUiIHk9IjM3Mi42MTcyIj5Ta2lwIHRoaXMgcmVjb3JkPC90ZXh0Pjxwb2x5Z29uIGZpbGw9IiNGMUYxRjEiIHBvaW50cz0iMTY3Ny43NSwzNTEuMjczNCwyMDAxLjc1LDM1MS4yNzM0LDIwMTMuNzUsMzYzLjI3MzQsMjAwMS43NSwzNzUuMjczNCwxNjc3Ljc1LDM3NS4yNzM0LDE2NjUuNzUsMzYzLjI3MzQsMTY3Ny43NSwzNTEuMjczNCIgc3R5bGU9InN0cm9rZTojMTgxODE4O3N0cm9rZS13aWR0aDowLjU7Ii8+PHRleHQgZmlsbD0iIzAwMDAwMCIgZm9udC1mYW1pbHk9InNhbnMtc2VyaWYiIGZvbnQtc2l6ZT0iMTEiIGxlbmd0aEFkanVzdD0ic3BhY2luZyIgdGV4dExlbmd0aD0iMzI0IiB4PSIxNjc3Ljc1IiB5PSIzNjcuNzg1MiI+Z2l2ZXIgYW5kIHJlY2VpdmVyIGV4aXN0IGluIHRoZSBnaWZ0IGNvdW50cyBkaWN0aW9uYXJ5PC90ZXh0Pjx0ZXh0IGZpbGw9IiMwMDAwMDAiIGZvbnQtZmFtaWx5PSJzYW5zLXNlcmlmIiBmb250LXNpemU9IjExIiBsZW5ndGhBZGp1c3Q9InNwYWNpbmciIHRleHRMZW5ndGg9IjI0IiB4PSIxNjQxLjc1IiB5PSIzNjEuODk4NCI+dHJ1ZTwvdGV4dD48dGV4dCBmaWxsPSIjMDAwMDAwIiBmb250LWZhbWlseT0ic2Fucy1zZXJpZiIgZm9udC1zaXplPSIxMSIgbGVuZ3RoQWRqdXN0PSJzcGFjaW5nIiB0ZXh0TGVuZ3RoPSIzMCIgeD0iMjAxMy43NSIgeT0iMzYxLjg5ODQiPmZhbHNlPC90ZXh0PjxyZWN0IGZpbGw9IiNGMUYxRjEiIGhlaWdodD0iMzIuODQzOCIgcng9IjEyLjUiIHJ5PSIxMi41IiBzdHlsZT0ic3Ryb2tlOiMxODE4MTg7c3Ryb2tlLXdpZHRoOjAuNTsiIHdpZHRoPSIzMjYiIHg9IjE0OTIuNzUiIHk9IjM4NS4yNzM0Ii8+PHRleHQgZmlsbD0iIzAwMDAwMCIgZm9udC1mYW1pbHk9InNhbnMtc2VyaWYiIGZvbnQtc2l6ZT0iMTIiIGxlbmd0aEFkanVzdD0ic3BhY2luZyIgdGV4dExlbmd0aD0iMzA2IiB4PSIxNTAyLjc1IiB5PSI0MDYuNjE3MiI+SW5jcmVtZW50IHRoZSBnaWZ0IGNvdW50IGZyb20gZ2l2ZXIgdG8gcmVjZWl2ZXI8L3RleHQ+PHJlY3QgZmlsbD0iI0YxRjFGMSIgaGVpZ2h0PSIzMi44NDM4IiByeD0iMTIuNSIgcnk9IjEyLjUiIHN0eWxlPSJzdHJva2U6IzE4MTgxODtzdHJva2Utd2lkdGg6MC41OyIgd2lkdGg9IjM2MiIgeD0iMTg0Mi43NSIgeT0iMzg1LjI3MzQiLz48dGV4dCBmaWxsPSIjMDAwMDAwIiBmb250LWZhbWlseT0ic2Fucy1zZXJpZiIgZm9udC1zaXplPSIxMiIgbGVuZ3RoQWRqdXN0PSJzcGFjaW5nIiB0ZXh0TGVuZ3RoPSIzNDIiIHg9IjE4NTIuNzUiIHk9IjQwNi42MTcyIj5Jbml0aWFsaXplIHRoZSBnaWZ0IGNvdW50IGZyb20gZ2l2ZXIgdG8gcmVjZWl2ZXIgYXMgMTwvdGV4dD48cG9seWdvbiBmaWxsPSIjRjFGMUYxIiBwb2ludHM9IjE4MzkuNzUsNDI0LjExNzIsMTg1MS43NSw0MzYuMTE3MiwxODM5Ljc1LDQ0OC4xMTcyLDE4MjcuNzUsNDM2LjExNzIsMTgzOS43NSw0MjQuMTE3MiIgc3R5bGU9InN0cm9rZTojMTgxODE4O3N0cm9rZS13aWR0aDowLjU7Ii8+PHBvbHlnb24gZmlsbD0iI0YxRjFGMSIgcG9pbnRzPSIxNzEwLjc1LDQ3My44MDg2LDE5NjguNzUsNDczLjgwODYsMTk4MC43NSw0ODUuODA4NiwxOTY4Ljc1LDQ5Ny44MDg2LDE3MTAuNzUsNDk3LjgwODYsMTY5OC43NSw0ODUuODA4NiwxNzEwLjc1LDQ3My44MDg2IiBzdHlsZT0ic3Ryb2tlOiMxODE4MTg7c3Ryb2tlLXdpZHRoOjAuNTsiLz48dGV4dCBmaWxsPSIjMDAwMDAwIiBmb250LWZhbWlseT0ic2Fucy1zZXJpZiIgZm9udC1zaXplPSIxMSIgbGVuZ3RoQWRqdXN0PSJzcGFjaW5nIiB0ZXh0TGVuZ3RoPSIyNTgiIHg9IjE3MTAuNzUiIHk9IjQ5MC4zMjAzIj5naXZlciBleGlzdHMgaW4gdGhlIGdpZnQgaW5kaWNlcyBkaWN0aW9uYXJ5PC90ZXh0Pjx0ZXh0IGZpbGw9IiMwMDAwMDAiIGZvbnQtZmFtaWx5PSJzYW5zLXNlcmlmIiBmb250LXNpemU9IjExIiBsZW5ndGhBZGp1c3Q9InNwYWNpbmciIHRleHRMZW5ndGg9IjI0IiB4PSIxNjc0Ljc1IiB5PSI0ODQuNDMzNiI+dHJ1ZTwvdGV4dD48dGV4dCBmaWxsPSIjMDAwMDAwIiBmb250LWZhbWlseT0ic2Fucy1zZXJpZiIgZm9udC1zaXplPSIxMSIgbGVuZ3RoQWRqdXN0PSJzcGFjaW5nIiB0ZXh0TGVuZ3RoPSIzMCIgeD0iMTk4MC43NSIgeT0iNDg0LjQzMzYiPmZhbHNlPC90ZXh0PjxyZWN0IGZpbGw9IiNGMUYxRjEiIGhlaWdodD0iMzIuODQzOCIgcng9IjEyLjUiIHJ5PSIxMi41IiBzdHlsZT0ic3Ryb2tlOiMxODE4MTg7c3Ryb2tlLXdpZHRoOjAuNTsiIHdpZHRoPSIyNjEiIHg9IjE1NTguMjUiIHk9IjUwNy44MDg2Ii8+PHRleHQgZmlsbD0iIzAwMDAwMCIgZm9udC1mYW1pbHk9InNhbnMtc2VyaWYiIGZvbnQtc2l6ZT0iMTIiIGxlbmd0aEFkanVzdD0ic3BhY2luZyIgdGV4dExlbmd0aD0iMjQxIiB4PSIxNTY4LjI1IiB5PSI1MjkuMTUyMyI+SW5jcmVtZW50IHRoZSBnaWZ0IGluZGV4IG9mIHRoZSBnaXZlcjwvdGV4dD48cmVjdCBmaWxsPSIjRjFGMUYxIiBoZWlnaHQ9IjMyLjg0MzgiIHJ4PSIxMi41IiByeT0iMTIuNSIgc3R5bGU9InN0cm9rZTojMTgxODE4O3N0cm9rZS13aWR0aDowLjU7IiB3aWR0aD0iMjk3IiB4PSIxODQyLjI1IiB5PSI1MDcuODA4NiIvPjx0ZXh0IGZpbGw9IiMwMDAwMDAiIGZvbnQtZmFtaWx5PSJzYW5zLXNlcmlmIiBmb250LXNpemU9IjEyIiBsZW5ndGhBZGp1c3Q9InNwYWNpbmciIHRleHRMZW5ndGg9IjI3NyIgeD0iMTg1Mi4yNSIgeT0iNTI5LjE1MjMiPkluaXRpYWxpemUgdGhlIGdpZnQgaW5kZXggb2YgdGhlIGdpdmVyIGFzIDE8L3RleHQ+PHBvbHlnb24gZmlsbD0iI0YxRjFGMSIgcG9pbnRzPSIxODM5Ljc1LDU0Ni42NTIzLDE4NTEuNzUsNTU4LjY1MjMsMTgzOS43NSw1NzAuNjUyMywxODI3Ljc1LDU1OC42NTIzLDE4MzkuNzUsNTQ2LjY1MjMiIHN0eWxlPSJzdHJva2U6IzE4MTgxODtzdHJva2Utd2lkdGg6MC41OyIvPjxwb2x5Z29uIGZpbGw9IiNGMUYxRjEiIHBvaW50cz0iMTcwMS43NSw1OTAuNjUyMywxOTc3Ljc1LDU5MC42NTIzLDE5ODkuNzUsNjAyLjY1MjMsMTk3Ny43NSw2MTQuNjUyMywxNzAxLjc1LDYxNC42NTIzLDE2ODkuNzUsNjAyLjY1MjMsMTcwMS43NSw1OTAuNjUyMyIgc3R5bGU9InN0cm9rZTojMTgxODE4O3N0cm9rZS13aWR0aDowLjU7Ii8+PHRleHQgZmlsbD0iIzAwMDAwMCIgZm9udC1mYW1pbHk9InNhbnMtc2VyaWYiIGZvbnQtc2l6ZT0iMTEiIGxlbmd0aEFkanVzdD0ic3BhY2luZyIgdGV4dExlbmd0aD0iMjc2IiB4PSIxNzAxLjc1IiB5PSI2MDcuMTY0MSI+cmVjZWl2ZXIgZXhpc3RzIGluIHRoZSBnaWZ0IGluZGljZXMgZGljdGlvbmFyeTwvdGV4dD48dGV4dCBmaWxsPSIjMDAwMDAwIiBmb250LWZhbWlseT0ic2Fucy1zZXJpZiIgZm9udC1zaXplPSIxMSIgbGVuZ3RoQWRqdXN0PSJzcGFjaW5nIiB0ZXh0TGVuZ3RoPSIyNCIgeD0iMTY2NS43NSIgeT0iNjAxLjI3NzMiPnRydWU8L3RleHQ+PHRleHQgZmlsbD0iIzAwMDAwMCIgZm9udC1mYW1pbHk9InNhbnMtc2VyaWYiIGZvbnQtc2l6ZT0iMTEiIGxlbmd0aEFkanVzdD0ic3BhY2luZyIgdGV4dExlbmd0aD0iMzAiIHg9IjE5ODkuNzUiIHk9IjYwMS4yNzczIj5mYWxzZTwvdGV4dD48cmVjdCBmaWxsPSIjRjFGMUYxIiBoZWlnaHQ9IjMyLjg0MzgiIHJ4PSIxMi41IiByeT0iMTIuNSIgc3R5bGU9InN0cm9rZTojMTgxODE4O3N0cm9rZS13aWR0aDowLjU7IiB3aWR0aD0iMjgyIiB4PSIxNTM3LjUiIHk9IjYyNC42NTIzIi8+PHRleHQgZmlsbD0iIzAwMDAwMCIgZm9udC1mYW1pbHk9InNhbnMtc2VyaWYiIGZvbnQtc2l6ZT0iMTIiIGxlbmd0aEFkanVzdD0ic3BhY2luZyIgdGV4dExlbmd0aD0iMjYyIiB4PSIxNTQ3LjUiIHk9IjY0NS45OTYxIj5EZWNyZW1lbnQgdGhlIGdpZnQgaW5kZXggb2YgdGhlIHJlY2VpdmVyPC90ZXh0PjxyZWN0IGZpbGw9IiNGMUYxRjEiIGhlaWdodD0iMzIuODQzOCIgcng9IjEyLjUiIHJ5PSIxMi41IiBzdHlsZT0ic3Ryb2tlOiMxODE4MTg7c3Ryb2tlLXdpZHRoOjAuNTsiIHdpZHRoPSIzMjMiIHg9IjE4MzkuNSIgeT0iNjI0LjY1MjMiLz48dGV4dCBmaWxsPSIjMDAwMDAwIiBmb250LWZhbWlseT0ic2Fucy1zZXJpZiIgZm9udC1zaXplPSIxMiIgbGVuZ3RoQWRqdXN0PSJzcGFjaW5nIiB0ZXh0TGVuZ3RoPSIzMDMiIHg9IjE4NDkuNSIgeT0iNjQ1Ljk5NjEiPkluaXRpYWxpemUgdGhlIGdpZnQgaW5kZXggb2YgdGhlIHJlY2VpdmVyIGFzIC0xPC90ZXh0Pjxwb2x5Z29uIGZpbGw9IiNGMUYxRjEiIHBvaW50cz0iMTgzOS43NSw2NjMuNDk2MSwxODUxLjc1LDY3NS40OTYxLDE4MzkuNzUsNjg3LjQ5NjEsMTgyNy43NSw2NzUuNDk2MSwxODM5Ljc1LDY2My40OTYxIiBzdHlsZT0ic3Ryb2tlOiMxODE4MTg7c3Ryb2tlLXdpZHRoOjAuNTsiLz48cG9seWdvbiBmaWxsPSIjRjFGMUYxIiBwb2ludHM9IjE2MjAsNjkzLjQ5NjEsMTYzMiw3MDUuNDk2MSwxNjIwLDcxNy40OTYxLDE2MDgsNzA1LjQ5NjEsMTYyMCw2OTMuNDk2MSIgc3R5bGU9InN0cm9rZTojMTgxODE4O3N0cm9rZS13aWR0aDowLjU7Ii8+PHBvbHlnb24gZmlsbD0iI0YxRjFGMSIgcG9pbnRzPSIxNTM5LDE1NS42ODc1LDE3MDEsMTU1LjY4NzUsMTcxMywxNjcuNjg3NSwxNzAxLDE3OS42ODc1LDE1MzksMTc5LjY4NzUsMTUyNywxNjcuNjg3NSwxNTM5LDE1NS42ODc1IiBzdHlsZT0ic3Ryb2tlOiMxODE4MTg7c3Ryb2tlLXdpZHRoOjAuNTsiLz48dGV4dCBmaWxsPSIjMDAwMDAwIiBmb250LWZhbWlseT0ic2Fucy1zZXJpZiIgZm9udC1zaXplPSIxMSIgbGVuZ3RoQWRqdXN0PSJzcGFjaW5nIiB0ZXh0TGVuZ3RoPSIyNCIgeD0iMTYyNCIgeT0iMTkwLjA4NTkiPnRydWU8L3RleHQ+PHRleHQgZmlsbD0iIzAwMDAwMCIgZm9udC1mYW1pbHk9InNhbnMtc2VyaWYiIGZvbnQtc2l6ZT0iMTEiIGxlbmd0aEFkanVzdD0ic3BhY2luZyIgdGV4dExlbmd0aD0iMTYyIiB4PSIxNTM5IiB5PSIxNzIuMTk5MiI+dGhlcmUgYXJlIG1vcmUgZ2lmdCByZWNvcmRzPC90ZXh0PjxyZWN0IGZpbGw9IiNGMUYxRjEiIGhlaWdodD0iMzIuODQzOCIgcng9IjEyLjUiIHJ5PSIxMi41IiBzdHlsZT0ic3Ryb2tlOiMxODE4MTg7c3Ryb2tlLXdpZHRoOjAuNTsiIHdpZHRoPSI1MTkiIHg9IjEzNjAuNSIgeT0iNzU5LjQ5NjEiLz48dGV4dCBmaWxsPSIjMDAwMDAwIiBmb250LWZhbWlseT0ic2Fucy1zZXJpZiIgZm9udC1zaXplPSIxMiIgbGVuZ3RoQWRqdXN0PSJzcGFjaW5nIiB0ZXh0TGVuZ3RoPSI0OTkiIHg9IjEzNzAuNSIgeT0iNzgwLjgzOTgiPkluaXRpYWxpemUgYSBkaWN0aW9uYXJ5IHRvIHN0b3JlIHRoZSBudW1iZXIgb2YgZ2lmdHMgZWFjaCBmcmllbmQgd2lsbCByZWNlaXZlPC90ZXh0PjxyZWN0IGZpbGw9IiNGMUYxRjEiIGhlaWdodD0iMzIuODQzOCIgcng9IjEyLjUiIHJ5PSIxMi41IiBzdHlsZT0ic3Ryb2tlOiMxODE4MTg7c3Ryb2tlLXdpZHRoOjAuNTsiIHdpZHRoPSIyMDQiIHg9IjE1MTgiIHk9Ijg2OC4yMzgzIi8+PHRleHQgZmlsbD0iIzAwMDAwMCIgZm9udC1mYW1pbHk9InNhbnMtc2VyaWYiIGZvbnQtc2l6ZT0iMTIiIGxlbmd0aEFkanVzdD0ic3BhY2luZyIgdGV4dExlbmd0aD0iMTg0IiB4PSIxNTI4IiB5PSI4ODkuNTgyIj5HZXQgdGhlIG5leHQgcGFpciBvZiBmcmllbmRzPC90ZXh0PjxyZWN0IGZpbGw9IiNGMUYxRjEiIGhlaWdodD0iMzIuODQzOCIgcng9IjEyLjUiIHJ5PSIxMi41IiBzdHlsZT0ic3Ryb2tlOiMxODE4MTg7c3Ryb2tlLXdpZHRoOjAuNTsiIHdpZHRoPSIyODciIHg9IjE0NzYuNSIgeT0iOTIxLjA4MiIvPjx0ZXh0IGZpbGw9IiMwMDAwMDAiIGZvbnQtZmFtaWx5PSJzYW5zLXNlcmlmIiBmb250LXNpemU9IjEyIiBsZW5ndGhBZGp1c3Q9InNwYWNpbmciIHRleHRMZW5ndGg9IjI2NyIgeD0iMTQ4Ni41IiB5PSI5NDIuNDI1OCI+RXh0cmFjdCBmcmllbmQxIGFuZCBmcmllbmQyIGZyb20gdGhlIHBhaXI8L3RleHQ+PHBvbHlnb24gZmlsbD0iI0YxRjFGMSIgcG9pbnRzPSIxNTEyLDk3My45MjU4LDE3MjgsOTczLjkyNTgsMTc0MCw5ODUuOTI1OCwxNzI4LDk5Ny45MjU4LDE1MTIsOTk3LjkyNTgsMTUwMCw5ODUuOTI1OCwxNTEyLDk3My45MjU4IiBzdHlsZT0ic3Ryb2tlOiMxODE4MTg7c3Ryb2tlLXdpZHRoOjAuNTsiLz48dGV4dCBmaWxsPSIjMDAwMDAwIiBmb250LWZhbWlseT0ic2Fucy1zZXJpZiIgZm9udC1zaXplPSIxMSIgbGVuZ3RoQWRqdXN0PSJzcGFjaW5nIiB0ZXh0TGVuZ3RoPSIyMTYiIHg9IjE1MTIiIHk9Ijk5MC40Mzc1Ij5mcmllbmQxIGFuZCBmcmllbmQyIGhhdmUgZ2lmdCBjb3VudHM8L3RleHQ+PHRleHQgZmlsbD0iIzAwMDAwMCIgZm9udC1mYW1pbHk9InNhbnMtc2VyaWYiIGZvbnQtc2l6ZT0iMTEiIGxlbmd0aEFkanVzdD0ic3BhY2luZyIgdGV4dExlbmd0aD0iMjQiIHg9IjE0NzYiIHk9Ijk4NC41NTA4Ij50cnVlPC90ZXh0Pjx0ZXh0IGZpbGw9IiMwMDAwMDAiIGZvbnQtZmFtaWx5PSJzYW5zLXNlcmlmIiBmb250LXNpemU9IjExIiBsZW5ndGhBZGp1c3Q9InNwYWNpbmciIHRleHRMZW5ndGg9IjMwIiB4PSIxNzQwIiB5PSI5ODQuNTUwOCI+ZmFsc2U8L3RleHQ+PHBvbHlnb24gZmlsbD0iI0YxRjFGMSIgcG9pbnRzPSI1MCwxMDE3LjkyNTgsNDc2LDEwMTcuOTI1OCw0ODgsMTAyOS45MjU4LDQ3NiwxMDQxLjkyNTgsNTAsMTA0MS45MjU4LDM4LDEwMjkuOTI1OCw1MCwxMDE3LjkyNTgiIHN0eWxlPSJzdHJva2U6IzE4MTgxODtzdHJva2Utd2lkdGg6MC41OyIvPjx0ZXh0IGZpbGw9IiMwMDAwMDAiIGZvbnQtZmFtaWx5PSJzYW5zLXNlcmlmIiBmb250LXNpemU9IjExIiBsZW5ndGhBZGp1c3Q9InNwYWNpbmciIHRleHRMZW5ndGg9IjI0IiB4PSIyNjciIHk9IjEwNTIuMzI0MiI+dHJ1ZTwvdGV4dD48dGV4dCBmaWxsPSIjMDAwMDAwIiBmb250LWZhbWlseT0ic2Fucy1zZXJpZiIgZm9udC1zaXplPSIxMSIgbGVuZ3RoQWRqdXN0PSJzcGFjaW5nIiB0ZXh0TGVuZ3RoPSI0MjYiIHg9IjUwIiB5PSIxMDM0LjQzNzUiPmdpZnQgY291bnQgZnJvbSBmcmllbmQxIHRvIGZyaWVuZDIgJmd0OyBnaWZ0IGNvdW50IGZyb20gZnJpZW5kMiB0byBmcmllbmQxPC90ZXh0PjxyZWN0IGZpbGw9IiNGMUYxRjEiIGhlaWdodD0iMzIuODQzOCIgcng9IjEyLjUiIHJ5PSIxMi41IiBzdHlsZT0ic3Ryb2tlOiMxODE4MTg7c3Ryb2tlLXdpZHRoOjAuNTsiIHdpZHRoPSIzNzAiIHg9Ijc4IiB5PSIxMDczLjY5OTIiLz48dGV4dCBmaWxsPSIjMDAwMDAwIiBmb250LWZhbWlseT0ic2Fucy1zZXJpZiIgZm9udC1zaXplPSIxMiIgbGVuZ3RoQWRqdXN0PSJzcGFjaW5nIiB0ZXh0TGVuZ3RoPSIzNTAiIHg9Ijg4IiB5PSIxMDk1LjA0MyI+SW5jcmVtZW50IHRoZSBnaWZ0IGNvdW50IGZvciBmcmllbmQxIGluIHRoZSBkaWN0aW9uYXJ5PC90ZXh0Pjxwb2x5Z29uIGZpbGw9IiNGMUYxRjEiIHBvaW50cz0iNTIwLDEwMTcuOTI1OCw5NDYsMTAxNy45MjU4LDk1OCwxMDI5LjkyNTgsOTQ2LDEwNDEuOTI1OCw1MjAsMTA0MS45MjU4LDUwOCwxMDI5LjkyNTgsNTIwLDEwMTcuOTI1OCIgc3R5bGU9InN0cm9rZTojMTgxODE4O3N0cm9rZS13aWR0aDowLjU7Ii8+PHRleHQgZmlsbD0iIzAwMDAwMCIgZm9udC1mYW1pbHk9InNhbnMtc2VyaWYiIGZvbnQtc2l6ZT0iMTEiIGxlbmd0aEFkanVzdD0ic3BhY2luZyIgdGV4dExlbmd0aD0iMjQiIHg9IjczNyIgeT0iMTA1Mi4zMjQyIj50cnVlPC90ZXh0Pjx0ZXh0IGZpbGw9IiMwMDAwMDAiIGZvbnQtZmFtaWx5PSJzYW5zLXNlcmlmIiBmb250LXNpemU9IjExIiBsZW5ndGhBZGp1c3Q9InNwYWNpbmciIHRleHRMZW5ndGg9IjQyNiIgeD0iNTIwIiB5PSIxMDM0LjQzNzUiPmdpZnQgY291bnQgZnJvbSBmcmllbmQyIHRvIGZyaWVuZDEgJmd0OyBnaWZ0IGNvdW50IGZyb20gZnJpZW5kMSB0byBmcmllbmQyPC90ZXh0Pjx0ZXh0IGZpbGw9IiMwMDAwMDAiIGZvbnQtZmFtaWx5PSJzYW5zLXNlcmlmIiBmb250LXNpemU9IjExIiBsZW5ndGhBZGp1c3Q9InNwYWNpbmciIHRleHRMZW5ndGg9IjMwIiB4PSI5NTgiIHk9IjEwMjguNTUwOCI+ZmFsc2U8L3RleHQ+PHJlY3QgZmlsbD0iI0YxRjFGMSIgaGVpZ2h0PSIzMi44NDM4IiByeD0iMTIuNSIgcnk9IjEyLjUiIHN0eWxlPSJzdHJva2U6IzE4MTgxODtzdHJva2Utd2lkdGg6MC41OyIgd2lkdGg9IjM3MCIgeD0iNTQ4IiB5PSIxMDczLjY5OTIiLz48dGV4dCBmaWxsPSIjMDAwMDAwIiBmb250LWZhbWlseT0ic2Fucy1zZXJpZiIgZm9udC1zaXplPSIxMiIgbGVuZ3RoQWRqdXN0PSJzcGFjaW5nIiB0ZXh0TGVuZ3RoPSIzNTAiIHg9IjU1OCIgeT0iMTA5NS4wNDMiPkluY3JlbWVudCB0aGUgZ2lmdCBjb3VudCBmb3IgZnJpZW5kMiBpbiB0aGUgZGljdGlvbmFyeTwvdGV4dD48cG9seWdvbiBmaWxsPSIjRjFGMUYxIiBwb2ludHM9IjEwMjgsMTA4MS44NjkxLDEyOTgsMTA4MS44NjkxLDEzMTAsMTA5My44NjkxLDEyOTgsMTEwNS44NjkxLDEwMjgsMTEwNS44NjkxLDEwMTYsMTA5My44NjkxLDEwMjgsMTA4MS44NjkxIiBzdHlsZT0ic3Ryb2tlOiMxODE4MTg7c3Ryb2tlLXdpZHRoOjAuNTsiLz48dGV4dCBmaWxsPSIjMDAwMDAwIiBmb250LWZhbWlseT0ic2Fucy1zZXJpZiIgZm9udC1zaXplPSIxMSIgbGVuZ3RoQWRqdXN0PSJzcGFjaW5nIiB0ZXh0TGVuZ3RoPSIyNCIgeD0iMTE2NyIgeT0iMTExNi4yNjc2Ij50cnVlPC90ZXh0Pjx0ZXh0IGZpbGw9IiMwMDAwMDAiIGZvbnQtZmFtaWx5PSJzYW5zLXNlcmlmIiBmb250LXNpemU9IjExIiBsZW5ndGhBZGp1c3Q9InNwYWNpbmciIHRleHRMZW5ndGg9IjI3MCIgeD0iMTAyOCIgeT0iMTA5OC4zODA5Ij5naWZ0IGluZGV4IG9mIGZyaWVuZDEgJmd0OyBnaWZ0IGluZGV4IG9mIGZyaWVuZDI8L3RleHQ+PHJlY3QgZmlsbD0iI0YxRjFGMSIgaGVpZ2h0PSIzMi44NDM4IiByeD0iMTIuNSIgcnk9IjEyLjUiIHN0eWxlPSJzdHJva2U6IzE4MTgxODtzdHJva2Utd2lkdGg6MC41OyIgd2lkdGg9IjM3MCIgeD0iOTc4IiB5PSIxMTM3LjY0MjYiLz48dGV4dCBmaWxsPSIjMDAwMDAwIiBmb250LWZhbWlseT0ic2Fucy1zZXJpZiIgZm9udC1zaXplPSIxMiIgbGVuZ3RoQWRqdXN0PSJzcGFjaW5nIiB0ZXh0TGVuZ3RoPSIzNTAiIHg9Ijk4OCIgeT0iMTE1OC45ODYzIj5JbmNyZW1lbnQgdGhlIGdpZnQgY291bnQgZm9yIGZyaWVuZDIgaW4gdGhlIGRpY3Rpb25hcnk8L3RleHQ+PHBvbHlnb24gZmlsbD0iI0YxRjFGMSIgcG9pbnRzPSIxNDE4LDEwODEuODY5MSwxNjg4LDEwODEuODY5MSwxNzAwLDEwOTMuODY5MSwxNjg4LDExMDUuODY5MSwxNDE4LDExMDUuODY5MSwxNDA2LDEwOTMuODY5MSwxNDE4LDEwODEuODY5MSIgc3R5bGU9InN0cm9rZTojMTgxODE4O3N0cm9rZS13aWR0aDowLjU7Ii8+PHRleHQgZmlsbD0iIzAwMDAwMCIgZm9udC1mYW1pbHk9InNhbnMtc2VyaWYiIGZvbnQtc2l6ZT0iMTEiIGxlbmd0aEFkanVzdD0ic3BhY2luZyIgdGV4dExlbmd0aD0iMjQiIHg9IjE1NTciIHk9IjExMTYuMjY3NiI+dHJ1ZTwvdGV4dD48dGV4dCBmaWxsPSIjMDAwMDAwIiBmb250LWZhbWlseT0ic2Fucy1zZXJpZiIgZm9udC1zaXplPSIxMSIgbGVuZ3RoQWRqdXN0PSJzcGFjaW5nIiB0ZXh0TGVuZ3RoPSIyNzAiIHg9IjE0MTgiIHk9IjEwOTguMzgwOSI+Z2lmdCBpbmRleCBvZiBmcmllbmQyICZndDsgZ2lmdCBpbmRleCBvZiBmcmllbmQxPC90ZXh0Pjx0ZXh0IGZpbGw9IiMwMDAwMDAiIGZvbnQtZmFtaWx5PSJzYW5zLXNlcmlmIiBmb250LXNpemU9IjExIiBsZW5ndGhBZGp1c3Q9InNwYWNpbmciIHRleHRMZW5ndGg9IjMwIiB4PSIxNzAwIiB5PSIxMDkyLjQ5NDEiPmZhbHNlPC90ZXh0PjxyZWN0IGZpbGw9IiNGMUYxRjEiIGhlaWdodD0iMzIuODQzOCIgcng9IjEyLjUiIHJ5PSIxMi41IiBzdHlsZT0ic3Ryb2tlOiMxODE4MTg7c3Ryb2tlLXdpZHRoOjAuNTsiIHdpZHRoPSIzNzAiIHg9IjEzNjgiIHk9IjExMzcuNjQyNiIvPjx0ZXh0IGZpbGw9IiMwMDAwMDAiIGZvbnQtZmFtaWx5PSJzYW5zLXNlcmlmIiBmb250LXNpemU9IjEyIiBsZW5ndGhBZGp1c3Q9InNwYWNpbmciIHRleHRMZW5ndGg9IjM1MCIgeD0iMTM3OCIgeT0iMTE1OC45ODYzIj5JbmNyZW1lbnQgdGhlIGdpZnQgY291bnQgZm9yIGZyaWVuZDEgaW4gdGhlIGRpY3Rpb25hcnk8L3RleHQ+PHJlY3QgZmlsbD0iI0YxRjFGMSIgaGVpZ2h0PSIzMi44NDM4IiByeD0iMTIuNSIgcnk9IjEyLjUiIHN0eWxlPSJzdHJva2U6IzE4MTgxODtzdHJva2Utd2lkdGg6MC41OyIgd2lkdGg9Ijg3IiB4PSIxNzU4IiB5PSIxMTM0Ljc1NTkiLz48dGV4dCBmaWxsPSIjMDAwMDAwIiBmb250LWZhbWlseT0ic2Fucy1zZXJpZiIgZm9udC1zaXplPSIxMiIgbGVuZ3RoQWRqdXN0PSJzcGFjaW5nIiB0ZXh0TGVuZ3RoPSI2NyIgeD0iMTc2OCIgeT0iMTE1Ni4wOTk2Ij5EbyBub3RoaW5nPC90ZXh0Pjxwb2x5Z29uIGZpbGw9IiNGMUYxRjEiIHBvaW50cz0iMTkxNSwxMDE3LjkyNTgsMjE4NSwxMDE3LjkyNTgsMjE5NywxMDI5LjkyNTgsMjE4NSwxMDQxLjkyNTgsMTkxNSwxMDQxLjkyNTgsMTkwMywxMDI5LjkyNTgsMTkxNSwxMDE3LjkyNTgiIHN0eWxlPSJzdHJva2U6IzE4MTgxODtzdHJva2Utd2lkdGg6MC41OyIvPjx0ZXh0IGZpbGw9IiMwMDAwMDAiIGZvbnQtZmFtaWx5PSJzYW5zLXNlcmlmIiBmb250LXNpemU9IjExIiBsZW5ndGhBZGp1c3Q9InNwYWNpbmciIHRleHRMZW5ndGg9IjI0IiB4PSIyMDU0IiB5PSIxMDUyLjMyNDIiPnRydWU8L3RleHQ+PHRleHQgZmlsbD0iIzAwMDAwMCIgZm9udC1mYW1pbHk9InNhbnMtc2VyaWYiIGZvbnQtc2l6ZT0iMTEiIGxlbmd0aEFkanVzdD0ic3BhY2luZyIgdGV4dExlbmd0aD0iMjcwIiB4PSIxOTE1IiB5PSIxMDM0LjQzNzUiPmdpZnQgaW5kZXggb2YgZnJpZW5kMSAmZ3Q7IGdpZnQgaW5kZXggb2YgZnJpZW5kMjwvdGV4dD48cmVjdCBmaWxsPSIjRjFGMUYxIiBoZWlnaHQ9IjMyLjg0MzgiIHJ4PSIxMi41IiByeT0iMTIuNSIgc3R5bGU9InN0cm9rZTojMTgxODE4O3N0cm9rZS13aWR0aDowLjU7IiB3aWR0aD0iMzcwIiB4PSIxODY1IiB5PSIxMDczLjY5OTIiLz48dGV4dCBmaWxsPSIjMDAwMDAwIiBmb250LWZhbWlseT0ic2Fucy1zZXJpZiIgZm9udC1zaXplPSIxMiIgbGVuZ3RoQWRqdXN0PSJzcGFjaW5nIiB0ZXh0TGVuZ3RoPSIzNTAiIHg9IjE4NzUiIHk9IjEwOTUuMDQzIj5JbmNyZW1lbnQgdGhlIGdpZnQgY291bnQgZm9yIGZyaWVuZDIgaW4gdGhlIGRpY3Rpb25hcnk8L3RleHQ+PHBvbHlnb24gZmlsbD0iI0YxRjFGMSIgcG9pbnRzPSIyMzAwLjc1LDEwMTcuOTI1OCwyNTcwLjc1LDEwMTcuOTI1OCwyNTgyLjc1LDEwMjkuOTI1OCwyNTcwLjc1LDEwNDEuOTI1OCwyMzAwLjc1LDEwNDEuOTI1OCwyMjg4Ljc1LDEwMjkuOTI1OCwyMzAwLjc1LDEwMTcuOTI1OCIgc3R5bGU9InN0cm9rZTojMTgxODE4O3N0cm9rZS13aWR0aDowLjU7Ii8+PHRleHQgZmlsbD0iIzAwMDAwMCIgZm9udC1mYW1pbHk9InNhbnMtc2VyaWYiIGZvbnQtc2l6ZT0iMTEiIGxlbmd0aEFkanVzdD0ic3BhY2luZyIgdGV4dExlbmd0aD0iMjQiIHg9IjI0MzkuNzUiIHk9IjEwNTIuMzI0MiI+dHJ1ZTwvdGV4dD48dGV4dCBmaWxsPSIjMDAwMDAwIiBmb250LWZhbWlseT0ic2Fucy1zZXJpZiIgZm9udC1zaXplPSIxMSIgbGVuZ3RoQWRqdXN0PSJzcGFjaW5nIiB0ZXh0TGVuZ3RoPSIyNzAiIHg9IjIzMDAuNzUiIHk9IjEwMzQuNDM3NSI+Z2lmdCBpbmRleCBvZiBmcmllbmQyICZndDsgZ2lmdCBpbmRleCBvZiBmcmllbmQxPC90ZXh0Pjx0ZXh0IGZpbGw9IiMwMDAwMDAiIGZvbnQtZmFtaWx5PSJzYW5zLXNlcmlmIiBmb250LXNpemU9IjExIiBsZW5ndGhBZGp1c3Q9InNwYWNpbmciIHRleHRMZW5ndGg9IjMwIiB4PSIyNTgyLjc1IiB5PSIxMDI4LjU1MDgiPmZhbHNlPC90ZXh0PjxyZWN0IGZpbGw9IiNGMUYxRjEiIGhlaWdodD0iMzIuODQzOCIgcng9IjEyLjUiIHJ5PSIxMi41IiBzdHlsZT0ic3Ryb2tlOiMxODE4MTg7c3Ryb2tlLXdpZHRoOjAuNTsiIHdpZHRoPSIzNzAiIHg9IjIyNTAuNzUiIHk9IjEwNzMuNjk5MiIvPjx0ZXh0IGZpbGw9IiMwMDAwMDAiIGZvbnQtZmFtaWx5PSJzYW5zLXNlcmlmIiBmb250LXNpemU9IjEyIiBsZW5ndGhBZGp1c3Q9InNwYWNpbmciIHRleHRMZW5ndGg9IjM1MCIgeD0iMjI2MC43NSIgeT0iMTA5NS4wNDMiPkluY3JlbWVudCB0aGUgZ2lmdCBjb3VudCBmb3IgZnJpZW5kMSBpbiB0aGUgZGljdGlvbmFyeTwvdGV4dD48cmVjdCBmaWxsPSIjRjFGMUYxIiBoZWlnaHQ9IjMyLjg0MzgiIHJ4PSIxMi41IiByeT0iMTIuNSIgc3R5bGU9InN0cm9rZTojMTgxODE4O3N0cm9rZS13aWR0aDowLjU7IiB3aWR0aD0iODciIHg9IjI2MzAuNzUiIHk9IjEwNzAuODEyNSIvPjx0ZXh0IGZpbGw9IiMwMDAwMDAiIGZvbnQtZmFtaWx5PSJzYW5zLXNlcmlmIiBmb250LXNpemU9IjEyIiBsZW5ndGhBZGp1c3Q9InNwYWNpbmciIHRleHRMZW5ndGg9IjY3IiB4PSIyNjQwLjc1IiB5PSIxMDkyLjE1NjMiPkRvIG5vdGhpbmc8L3RleHQ+PHBvbHlnb24gZmlsbD0iI0YxRjFGMSIgcG9pbnRzPSIxNjIwLDEyMjcuNTQzLDE2MzIsMTIzOS41NDMsMTYyMCwxMjUxLjU0MywxNjA4LDEyMzkuNTQzLDE2MjAsMTIyNy41NDMiIHN0eWxlPSJzdHJva2U6IzE4MTgxODtzdHJva2Utd2lkdGg6MC41OyIvPjxwb2x5Z29uIGZpbGw9IiNGMUYxRjEiIHBvaW50cz0iMTUzOSw4MTIuMzM5OCwxNzAxLDgxMi4zMzk4LDE3MTMsODI0LjMzOTgsMTcwMSw4MzYuMzM5OCwxNTM5LDgzNi4zMzk4LDE1MjcsODI0LjMzOTgsMTUzOSw4MTIuMzM5OCIgc3R5bGU9InN0cm9rZTojMTgxODE4O3N0cm9rZS13aWR0aDowLjU7Ii8+PHRleHQgZmlsbD0iIzAwMDAwMCIgZm9udC1mYW1pbHk9InNhbnMtc2VyaWYiIGZvbnQtc2l6ZT0iMTEiIGxlbmd0aEFkanVzdD0ic3BhY2luZyIgdGV4dExlbmd0aD0iMjQiIHg9IjE2MjQiIHk9Ijg0Ni43MzgzIj50cnVlPC90ZXh0Pjx0ZXh0IGZpbGw9IiMwMDAwMDAiIGZvbnQtZmFtaWx5PSJzYW5zLXNlcmlmIiBmb250LXNpemU9IjExIiBsZW5ndGhBZGp1c3Q9InNwYWNpbmciIHRleHRMZW5ndGg9IjE2MiIgeD0iMTUzOSIgeT0iODI4Ljg1MTYiPnRoZXJlIGFyZSBtb3JlIGZyaWVuZCBwYWlyczwvdGV4dD48cmVjdCBmaWxsPSIjRjFGMUYxIiBoZWlnaHQ9IjMyLjg0MzgiIHJ4PSIxMi41IiByeT0iMTIuNSIgc3R5bGU9InN0cm9rZTojMTgxODE4O3N0cm9rZS13aWR0aDowLjU7IiB3aWR0aD0iMzEwIiB4PSIxNDY1IiB5PSIxMjkzLjU0MyIvPjx0ZXh0IGZpbGw9IiMwMDAwMDAiIGZvbnQtZmFtaWx5PSJzYW5zLXNlcmlmIiBmb250LXNpemU9IjEyIiBsZW5ndGhBZGp1c3Q9InNwYWNpbmciIHRleHRMZW5ndGg9IjI5MCIgeD0iMTQ3NSIgeT0iMTMxNC44ODY3Ij5GaW5kIHRoZSBtYXhpbXVtIGdpZnQgY291bnQgaW4gdGhlIGRpY3Rpb25hcnk8L3RleHQ+PHJlY3QgZmlsbD0iI0YxRjFGMSIgaGVpZ2h0PSIzMi44NDM4IiByeD0iMTIuNSIgcnk9IjEyLjUiIHN0eWxlPSJzdHJva2U6IzE4MTgxODtzdHJva2Utd2lkdGg6MC41OyIgd2lkdGg9IjIwOCIgeD0iMTUxNiIgeT0iMTM0Ni4zODY3Ii8+PHRleHQgZmlsbD0iIzAwMDAwMCIgZm9udC1mYW1pbHk9InNhbnMtc2VyaWYiIGZvbnQtc2l6ZT0iMTIiIGxlbmd0aEFkanVzdD0ic3BhY2luZyIgdGV4dExlbmd0aD0iMTg4IiB4PSIxNTI2IiB5PSIxMzY3LjczMDUiPnJldHVybiB0aGUgbWF4aW11bSBnaWZ0IGNvdW50PC90ZXh0PjxlbGxpcHNlIGN4PSIxNjIwIiBjeT0iMTQxMC4yMzA1IiBmaWxsPSJub25lIiByeD0iMTEiIHJ5PSIxMSIgc3R5bGU9InN0cm9rZTojMjIyMjIyO3N0cm9rZS13aWR0aDoxLjA7Ii8+PGVsbGlwc2UgY3g9IjE2MjAiIGN5PSIxNDEwLjIzMDUiIGZpbGw9IiMyMjIyMjIiIHJ4PSI2IiByeT0iNiIgc3R5bGU9InN0cm9rZTojMjIyMjIyO3N0cm9rZS13aWR0aDoxLjA7Ii8+PGxpbmUgc3R5bGU9InN0cm9rZTojMTgxODE4O3N0cm9rZS13aWR0aDoxLjA7IiB4MT0iMTYyMCIgeDI9IjE2MjAiIHkxPSIzMCIgeTI9IjUwIi8+PHBvbHlnb24gZmlsbD0iIzE4MTgxOCIgcG9pbnRzPSIxNjE2LDQwLDE2MjAsNTAsMTYyNCw0MCwxNjIwLDQ0IiBzdHlsZT0ic3Ryb2tlOiMxODE4MTg7c3Ryb2tlLXdpZHRoOjEuMDsiLz48bGluZSBzdHlsZT0ic3Ryb2tlOiMxODE4MTg7c3Ryb2tlLXdpZHRoOjEuMDsiIHgxPSIxNjIwIiB4Mj0iMTYyMCIgeTE9IjgyLjg0MzgiIHkyPSIxMDIuODQzOCIvPjxwb2x5Z29uIGZpbGw9IiMxODE4MTgiIHBvaW50cz0iMTYxNiw5Mi44NDM4LDE2MjAsMTAyLjg0MzgsMTYyNCw5Mi44NDM4LDE2MjAsOTYuODQzOCIgc3R5bGU9InN0cm9rZTojMTgxODE4O3N0cm9rZS13aWR0aDoxLjA7Ii8+PGxpbmUgc3R5bGU9InN0cm9rZTojMTgxODE4O3N0cm9rZS13aWR0aDoxLjA7IiB4MT0iMTYyMCIgeDI9IjE2MjAiIHkxPSIyNDQuNDI5NyIgeTI9IjI2NC40Mjk3Ii8+PHBvbHlnb24gZmlsbD0iIzE4MTgxOCIgcG9pbnRzPSIxNjE2LDI1NC40Mjk3LDE2MjAsMjY0LjQyOTcsMTYyNCwyNTQuNDI5NywxNjIwLDI1OC40Mjk3IiBzdHlsZT0ic3Ryb2tlOiMxODE4MTg7c3Ryb2tlLXdpZHRoOjEuMDsiLz48bGluZSBzdHlsZT0ic3Ryb2tlOiMxODE4MTg7c3Ryb2tlLXdpZHRoOjEuMDsiIHgxPSIxNjY1Ljc1IiB4Mj0iMTY1NS43NSIgeTE9IjM2My4yNzM0IiB5Mj0iMzYzLjI3MzQiLz48bGluZSBzdHlsZT0ic3Ryb2tlOiMxODE4MTg7c3Ryb2tlLXdpZHRoOjEuMDsiIHgxPSIxNjU1Ljc1IiB4Mj0iMTY1NS43NSIgeTE9IjM2My4yNzM0IiB5Mj0iMzg1LjI3MzQiLz48cG9seWdvbiBmaWxsPSIjMTgxODE4IiBwb2ludHM9IjE2NTEuNzUsMzc1LjI3MzQsMTY1NS43NSwzODUuMjczNCwxNjU5Ljc1LDM3NS4yNzM0LDE2NTUuNzUsMzc5LjI3MzQiIHN0eWxlPSJzdHJva2U6IzE4MTgxODtzdHJva2Utd2lkdGg6MS4wOyIvPjxsaW5lIHN0eWxlPSJzdHJva2U6IzE4MTgxODtzdHJva2Utd2lkdGg6MS4wOyIgeDE9IjIwMTMuNzUiIHgyPSIyMDIzLjc1IiB5MT0iMzYzLjI3MzQiIHkyPSIzNjMuMjczNCIvPjxsaW5lIHN0eWxlPSJzdHJva2U6IzE4MTgxODtzdHJva2Utd2lkdGg6MS4wOyIgeDE9IjIwMjMuNzUiIHgyPSIyMDIzLjc1IiB5MT0iMzYzLjI3MzQiIHkyPSIzODUuMjczNCIvPjxwb2x5Z29uIGZpbGw9IiMxODE4MTgiIHBvaW50cz0iMjAxOS43NSwzNzUuMjczNCwyMDIzLjc1LDM4NS4yNzM0LDIwMjcuNzUsMzc1LjI3MzQsMjAyMy43NSwzNzkuMjczNCIgc3R5bGU9InN0cm9rZTojMTgxODE4O3N0cm9rZS13aWR0aDoxLjA7Ii8+PGxpbmUgc3R5bGU9InN0cm9rZTojMTgxODE4O3N0cm9rZS13aWR0aDoxLjA7IiB4MT0iMTY1NS43NSIgeDI9IjE2NTUuNzUiIHkxPSI0MTguMTE3MiIgeTI9IjQzNi4xMTcyIi8+PGxpbmUgc3R5bGU9InN0cm9rZTojMTgxODE4O3N0cm9rZS13aWR0aDoxLjA7IiB4MT0iMTY1NS43NSIgeDI9IjE4MjcuNzUiIHkxPSI0MzYuMTE3MiIgeTI9IjQzNi4xMTcyIi8+PHBvbHlnb24gZmlsbD0iIzE4MTgxOCIgcG9pbnRzPSIxODE3Ljc1LDQzMi4xMTcyLDE4MjcuNzUsNDM2LjExNzIsMTgxNy43NSw0NDAuMTE3MiwxODIxLjc1LDQzNi4xMTcyIiBzdHlsZT0ic3Ryb2tlOiMxODE4MTg7c3Ryb2tlLXdpZHRoOjEuMDsiLz48bGluZSBzdHlsZT0ic3Ryb2tlOiMxODE4MTg7c3Ryb2tlLXdpZHRoOjEuMDsiIHgxPSIyMDIzLjc1IiB4Mj0iMjAyMy43NSIgeTE9IjQxOC4xMTcyIiB5Mj0iNDM2LjExNzIiLz48bGluZSBzdHlsZT0ic3Ryb2tlOiMxODE4MTg7c3Ryb2tlLXdpZHRoOjEuMDsiIHgxPSIyMDIzLjc1IiB4Mj0iMTg1MS43NSIgeTE9IjQzNi4xMTcyIiB5Mj0iNDM2LjExNzIiLz48cG9seWdvbiBmaWxsPSIjMTgxODE4IiBwb2ludHM9IjE4NjEuNzUsNDMyLjExNzIsMTg1MS43NSw0MzYuMTE3MiwxODYxLjc1LDQ0MC4xMTcyLDE4NTcuNzUsNDM2LjExNzIiIHN0eWxlPSJzdHJva2U6IzE4MTgxODtzdHJva2Utd2lkdGg6MS4wOyIvPjxsaW5lIHN0eWxlPSJzdHJva2U6IzE4MTgxODtzdHJva2Utd2lkdGg6MS4wOyIgeDE9IjE2OTguNzUiIHgyPSIxNjg4Ljc1IiB5MT0iNDg1LjgwODYiIHkyPSI0ODUuODA4NiIvPjxsaW5lIHN0eWxlPSJzdHJva2U6IzE4MTgxODtzdHJva2Utd2lkdGg6MS4wOyIgeDE9IjE2ODguNzUiIHgyPSIxNjg4Ljc1IiB5MT0iNDg1LjgwODYiIHkyPSI1MDcuODA4NiIvPjxwb2x5Z29uIGZpbGw9IiMxODE4MTgiIHBvaW50cz0iMTY4NC43NSw0OTcuODA4NiwxNjg4Ljc1LDUwNy44MDg2LDE2OTIuNzUsNDk3LjgwODYsMTY4OC43NSw1MDEuODA4NiIgc3R5bGU9InN0cm9rZTojMTgxODE4O3N0cm9rZS13aWR0aDoxLjA7Ii8+PGxpbmUgc3R5bGU9InN0cm9rZTojMTgxODE4O3N0cm9rZS13aWR0aDoxLjA7IiB4MT0iMTk4MC43NSIgeDI9IjE5OTAuNzUiIHkxPSI0ODUuODA4NiIgeTI9IjQ4NS44MDg2Ii8+PGxpbmUgc3R5bGU9InN0cm9rZTojMTgxODE4O3N0cm9rZS13aWR0aDoxLjA7IiB4MT0iMTk5MC43NSIgeDI9IjE5OTAuNzUiIHkxPSI0ODUuODA4NiIgeTI9IjUwNy44MDg2Ii8+PHBvbHlnb24gZmlsbD0iIzE4MTgxOCIgcG9pbnRzPSIxOTg2Ljc1LDQ5Ny44MDg2LDE5OTAuNzUsNTA3LjgwODYsMTk5NC43NSw0OTcuODA4NiwxOTkwLjc1LDUwMS44MDg2IiBzdHlsZT0ic3Ryb2tlOiMxODE4MTg7c3Ryb2tlLXdpZHRoOjEuMDsiLz48bGluZSBzdHlsZT0ic3Ryb2tlOiMxODE4MTg7c3Ryb2tlLXdpZHRoOjEuMDsiIHgxPSIxNjg4Ljc1IiB4Mj0iMTY4OC43NSIgeTE9IjU0MC42NTIzIiB5Mj0iNTU4LjY1MjMiLz48bGluZSBzdHlsZT0ic3Ryb2tlOiMxODE4MTg7c3Ryb2tlLXdpZHRoOjEuMDsiIHgxPSIxNjg4Ljc1IiB4Mj0iMTgyNy43NSIgeTE9IjU1OC42NTIzIiB5Mj0iNTU4LjY1MjMiLz48cG9seWdvbiBmaWxsPSIjMTgxODE4IiBwb2ludHM9IjE4MTcuNzUsNTU0LjY1MjMsMTgyNy43NSw1NTguNjUyMywxODE3Ljc1LDU2Mi42NTIzLDE4MjEuNzUsNTU4LjY1MjMiIHN0eWxlPSJzdHJva2U6IzE4MTgxODtzdHJva2Utd2lkdGg6MS4wOyIvPjxsaW5lIHN0eWxlPSJzdHJva2U6IzE4MTgxODtzdHJva2Utd2lkdGg6MS4wOyIgeDE9IjE5OTAuNzUiIHgyPSIxOTkwLjc1IiB5MT0iNTQwLjY1MjMiIHkyPSI1NTguNjUyMyIvPjxsaW5lIHN0eWxlPSJzdHJva2U6IzE4MTgxODtzdHJva2Utd2lkdGg6MS4wOyIgeDE9IjE5OTAuNzUiIHgyPSIxODUxLjc1IiB5MT0iNTU4LjY1MjMiIHkyPSI1NTguNjUyMyIvPjxwb2x5Z29uIGZpbGw9IiMxODE4MTgiIHBvaW50cz0iMTg2MS43NSw1NTQuNjUyMywxODUxLjc1LDU1OC42NTIzLDE4NjEuNzUsNTYyLjY1MjMsMTg1Ny43NSw1NTguNjUyMyIgc3R5bGU9InN0cm9rZTojMTgxODE4O3N0cm9rZS13aWR0aDoxLjA7Ii8+PGxpbmUgc3R5bGU9InN0cm9rZTojMTgxODE4O3N0cm9rZS13aWR0aDoxLjA7IiB4MT0iMTgzOS43NSIgeDI9IjE4MzkuNzUiIHkxPSI0NDguMTE3MiIgeTI9IjQ3My44MDg2Ii8+PHBvbHlnb24gZmlsbD0iIzE4MTgxOCIgcG9pbnRzPSIxODM1Ljc1LDQ2My44MDg2LDE4MzkuNzUsNDczLjgwODYsMTg0My43NSw0NjMuODA4NiwxODM5Ljc1LDQ2Ny44MDg2IiBzdHlsZT0ic3Ryb2tlOiMxODE4MTg7c3Ryb2tlLXdpZHRoOjEuMDsiLz48bGluZSBzdHlsZT0ic3Ryb2tlOiMxODE4MTg7c3Ryb2tlLXdpZHRoOjEuMDsiIHgxPSIxNjg5Ljc1IiB4Mj0iMTY3OC41IiB5MT0iNjAyLjY1MjMiIHkyPSI2MDIuNjUyMyIvPjxsaW5lIHN0eWxlPSJzdHJva2U6IzE4MTgxODtzdHJva2Utd2lkdGg6MS4wOyIgeDE9IjE2NzguNSIgeDI9IjE2NzguNSIgeTE9IjYwMi42NTIzIiB5Mj0iNjI0LjY1MjMiLz48cG9seWdvbiBmaWxsPSIjMTgxODE4IiBwb2ludHM9IjE2NzQuNSw2MTQuNjUyMywxNjc4LjUsNjI0LjY1MjMsMTY4Mi41LDYxNC42NTIzLDE2NzguNSw2MTguNjUyMyIgc3R5bGU9InN0cm9rZTojMTgxODE4O3N0cm9rZS13aWR0aDoxLjA7Ii8+PGxpbmUgc3R5bGU9InN0cm9rZTojMTgxODE4O3N0cm9rZS13aWR0aDoxLjA7IiB4MT0iMTk4OS43NSIgeDI9IjIwMDEiIHkxPSI2MDIuNjUyMyIgeTI9IjYwMi42NTIzIi8+PGxpbmUgc3R5bGU9InN0cm9rZTojMTgxODE4O3N0cm9rZS13aWR0aDoxLjA7IiB4MT0iMjAwMSIgeDI9IjIwMDEiIHkxPSI2MDIuNjUyMyIgeTI9IjYyNC42NTIzIi8+PHBvbHlnb24gZmlsbD0iIzE4MTgxOCIgcG9pbnRzPSIxOTk3LDYxNC42NTIzLDIwMDEsNjI0LjY1MjMsMjAwNSw2MTQuNjUyMywyMDAxLDYxOC42NTIzIiBzdHlsZT0ic3Ryb2tlOiMxODE4MTg7c3Ryb2tlLXdpZHRoOjEuMDsiLz48bGluZSBzdHlsZT0ic3Ryb2tlOiMxODE4MTg7c3Ryb2tlLXdpZHRoOjEuMDsiIHgxPSIxNjc4LjUiIHgyPSIxNjc4LjUiIHkxPSI2NTcuNDk2MSIgeTI9IjY3NS40OTYxIi8+PGxpbmUgc3R5bGU9InN0cm9rZTojMTgxODE4O3N0cm9rZS13aWR0aDoxLjA7IiB4MT0iMTY3OC41IiB4Mj0iMTgyNy43NSIgeTE9IjY3NS40OTYxIiB5Mj0iNjc1LjQ5NjEiLz48cG9seWdvbiBmaWxsPSIjMTgxODE4IiBwb2ludHM9IjE4MTcuNzUsNjcxLjQ5NjEsMTgyNy43NSw2NzUuNDk2MSwxODE3Ljc1LDY3OS40OTYxLDE4MjEuNzUsNjc1LjQ5NjEiIHN0eWxlPSJzdHJva2U6IzE4MTgxODtzdHJva2Utd2lkdGg6MS4wOyIvPjxsaW5lIHN0eWxlPSJzdHJva2U6IzE4MTgxODtzdHJva2Utd2lkdGg6MS4wOyIgeDE9IjIwMDEiIHgyPSIyMDAxIiB5MT0iNjU3LjQ5NjEiIHkyPSI2NzUuNDk2MSIvPjxsaW5lIHN0eWxlPSJzdHJva2U6IzE4MTgxODtzdHJva2Utd2lkdGg6MS4wOyIgeDE9IjIwMDEiIHgyPSIxODUxLjc1IiB5MT0iNjc1LjQ5NjEiIHkyPSI2NzUuNDk2MSIvPjxwb2x5Z29uIGZpbGw9IiMxODE4MTgiIHBvaW50cz0iMTg2MS43NSw2NzEuNDk2MSwxODUxLjc1LDY3NS40OTYxLDE4NjEuNzUsNjc5LjQ5NjEsMTg1Ny43NSw2NzUuNDk2MSIgc3R5bGU9InN0cm9rZTojMTgxODE4O3N0cm9rZS13aWR0aDoxLjA7Ii8+PGxpbmUgc3R5bGU9InN0cm9rZTojMTgxODE4O3N0cm9rZS13aWR0aDoxLjA7IiB4MT0iMTgzOS43NSIgeDI9IjE4MzkuNzUiIHkxPSI1NzAuNjUyMyIgeTI9IjU5MC42NTIzIi8+PHBvbHlnb24gZmlsbD0iIzE4MTgxOCIgcG9pbnRzPSIxODM1Ljc1LDU4MC42NTIzLDE4MzkuNzUsNTkwLjY1MjMsMTg0My43NSw1ODAuNjUyMywxODM5Ljc1LDU4NC42NTIzIiBzdHlsZT0ic3Ryb2tlOiMxODE4MTg7c3Ryb2tlLXdpZHRoOjEuMDsiLz48bGluZSBzdHlsZT0ic3Ryb2tlOiMxODE4MTg7c3Ryb2tlLXdpZHRoOjEuMDsiIHgxPSIxNTE1IiB4Mj0iMTQwMC4yNSIgeTE9IjMyOS4yNzM0IiB5Mj0iMzI5LjI3MzQiLz48bGluZSBzdHlsZT0ic3Ryb2tlOiMxODE4MTg7c3Ryb2tlLXdpZHRoOjEuMDsiIHgxPSIxNDAwLjI1IiB4Mj0iMTQwMC4yNSIgeTE9IjMyOS4yNzM0IiB5Mj0iMzUxLjI3MzQiLz48cG9seWdvbiBmaWxsPSIjMTgxODE4IiBwb2ludHM9IjEzOTYuMjUsMzQxLjI3MzQsMTQwMC4yNSwzNTEuMjczNCwxNDA0LjI1LDM0MS4yNzM0LDE0MDAuMjUsMzQ1LjI3MzQiIHN0eWxlPSJzdHJva2U6IzE4MTgxODtzdHJva2Utd2lkdGg6MS4wOyIvPjxsaW5lIHN0eWxlPSJzdHJva2U6IzE4MTgxODtzdHJva2Utd2lkdGg6MS4wOyIgeDE9IjE3MjUiIHgyPSIxODM5Ljc1IiB5MT0iMzI5LjI3MzQiIHkyPSIzMjkuMjczNCIvPjxsaW5lIHN0eWxlPSJzdHJva2U6IzE4MTgxODtzdHJva2Utd2lkdGg6MS4wOyIgeDE9IjE4MzkuNzUiIHgyPSIxODM5Ljc1IiB5MT0iMzI5LjI3MzQiIHkyPSIzNTEuMjczNCIvPjxwb2x5Z29uIGZpbGw9IiMxODE4MTgiIHBvaW50cz0iMTgzNS43NSwzNDEuMjczNCwxODM5Ljc1LDM1MS4yNzM0LDE4NDMuNzUsMzQxLjI3MzQsMTgzOS43NSwzNDUuMjczNCIgc3R5bGU9InN0cm9rZTojMTgxODE4O3N0cm9rZS13aWR0aDoxLjA7Ii8+PGxpbmUgc3R5bGU9InN0cm9rZTojMTgxODE4O3N0cm9rZS13aWR0aDoxLjA7IiB4MT0iMTQwMC4yNSIgeDI9IjE0MDAuMjUiIHkxPSIzODQuMTE3MiIgeTI9IjcwNS40OTYxIi8+PGxpbmUgc3R5bGU9InN0cm9rZTojMTgxODE4O3N0cm9rZS13aWR0aDoxLjA7IiB4MT0iMTQwMC4yNSIgeDI9IjE2MDgiIHkxPSI3MDUuNDk2MSIgeTI9IjcwNS40OTYxIi8+PHBvbHlnb24gZmlsbD0iIzE4MTgxOCIgcG9pbnRzPSIxNTk4LDcwMS40OTYxLDE2MDgsNzA1LjQ5NjEsMTU5OCw3MDkuNDk2MSwxNjAyLDcwNS40OTYxIiBzdHlsZT0ic3Ryb2tlOiMxODE4MTg7c3Ryb2tlLXdpZHRoOjEuMDsiLz48bGluZSBzdHlsZT0ic3Ryb2tlOiMxODE4MTg7c3Ryb2tlLXdpZHRoOjEuMDsiIHgxPSIxODM5Ljc1IiB4Mj0iMTgzOS43NSIgeTE9IjY4Ny40OTYxIiB5Mj0iNzA1LjQ5NjEiLz48bGluZSBzdHlsZT0ic3Ryb2tlOiMxODE4MTg7c3Ryb2tlLXdpZHRoOjEuMDsiIHgxPSIxODM5Ljc1IiB4Mj0iMTYzMiIgeTE9IjcwNS40OTYxIiB5Mj0iNzA1LjQ5NjEiLz48cG9seWdvbiBmaWxsPSIjMTgxODE4IiBwb2ludHM9IjE2NDIsNzAxLjQ5NjEsMTYzMiw3MDUuNDk2MSwxNjQyLDcwOS40OTYxLDE2MzgsNzA1LjQ5NjEiIHN0eWxlPSJzdHJva2U6IzE4MTgxODtzdHJva2Utd2lkdGg6MS4wOyIvPjxsaW5lIHN0eWxlPSJzdHJva2U6IzE4MTgxODtzdHJva2Utd2lkdGg6MS4wOyIgeDE9IjE2MjAiIHgyPSIxNjIwIiB5MT0iMjk3LjI3MzQiIHkyPSIzMTcuMjczNCIvPjxwb2x5Z29uIGZpbGw9IiMxODE4MTgiIHBvaW50cz0iMTYxNiwzMDcuMjczNCwxNjIwLDMxNy4yNzM0LDE2MjQsMzA3LjI3MzQsMTYyMCwzMTEuMjczNCIgc3R5bGU9InN0cm9rZTojMTgxODE4O3N0cm9rZS13aWR0aDoxLjA7Ii8+PGxpbmUgc3R5bGU9InN0cm9rZTojMTgxODE4O3N0cm9rZS13aWR0aDoxLjA7IiB4MT0iMTYyMCIgeDI9IjE2MjAiIHkxPSIxNzkuNjg3NSIgeTI9IjIxMS41ODU5Ii8+PHBvbHlnb24gZmlsbD0iIzE4MTgxOCIgcG9pbnRzPSIxNjE2LDIwMS41ODU5LDE2MjAsMjExLjU4NTksMTYyNCwyMDEuNTg1OSwxNjIwLDIwNS41ODU5IiBzdHlsZT0ic3Ryb2tlOiMxODE4MTg7c3Ryb2tlLXdpZHRoOjEuMDsiLz48bGluZSBzdHlsZT0ic3Ryb2tlOiMxODE4MTg7c3Ryb2tlLXdpZHRoOjEuMDsiIHgxPSIxNjIwIiB4Mj0iMTYyMCIgeTE9IjcxNy40OTYxIiB5Mj0iNzI3LjQ5NjEiLz48bGluZSBzdHlsZT0ic3Ryb2tlOiMxODE4MTg7c3Ryb2tlLXdpZHRoOjEuMDsiIHgxPSIxNjIwIiB4Mj0iMjIzNi43NSIgeTE9IjcyNy40OTYxIiB5Mj0iNzI3LjQ5NjEiLz48cG9seWdvbiBmaWxsPSIjMTgxODE4IiBwb2ludHM9IjIyMzIuNzUsNDUzLjgwODYsMjIzNi43NSw0NDMuODA4NiwyMjQwLjc1LDQ1My44MDg2LDIyMzYuNzUsNDQ5LjgwODYiIHN0eWxlPSJzdHJva2U6IzE4MTgxODtzdHJva2Utd2lkdGg6MS4wOyIvPjxsaW5lIHN0eWxlPSJzdHJva2U6IzE4MTgxODtzdHJva2Utd2lkdGg6MS4wOyIgeDE9IjIyMzYuNzUiIHgyPSIyMjM2Ljc1IiB5MT0iMTY3LjY4NzUiIHkyPSI3MjcuNDk2MSIvPjxsaW5lIHN0eWxlPSJzdHJva2U6IzE4MTgxODtzdHJva2Utd2lkdGg6MS4wOyIgeDE9IjIyMzYuNzUiIHgyPSIxNzEzIiB5MT0iMTY3LjY4NzUiIHkyPSIxNjcuNjg3NSIvPjxwb2x5Z29uIGZpbGw9IiMxODE4MTgiIHBvaW50cz0iMTcyMywxNjMuNjg3NSwxNzEzLDE2Ny42ODc1LDE3MjMsMTcxLjY4NzUsMTcxOSwxNjcuNjg3NSIgc3R5bGU9InN0cm9rZTojMTgxODE4O3N0cm9rZS13aWR0aDoxLjA7Ii8+PGxpbmUgc3R5bGU9InN0cm9rZTojMTgxODE4O3N0cm9rZS13aWR0aDoxLjA7IiB4MT0iMTUyNyIgeDI9IjEzMTUuNzUiIHkxPSIxNjcuNjg3NSIgeTI9IjE2Ny42ODc1Ii8+PHBvbHlnb24gZmlsbD0iIzE4MTgxOCIgcG9pbnRzPSIxMzExLjc1LDQzOS44MDg2LDEzMTUuNzUsNDQ5LjgwODYsMTMxOS43NSw0MzkuODA4NiwxMzE1Ljc1LDQ0My44MDg2IiBzdHlsZT0ic3Ryb2tlOiMxODE4MTg7c3Ryb2tlLXdpZHRoOjEuMDsiLz48bGluZSBzdHlsZT0ic3Ryb2tlOiMxODE4MTg7c3Ryb2tlLXdpZHRoOjEuMDsiIHgxPSIxMzE1Ljc1IiB4Mj0iMTMxNS43NSIgeTE9IjE2Ny42ODc1IiB5Mj0iNzM5LjQ5NjEiLz48bGluZSBzdHlsZT0ic3Ryb2tlOiMxODE4MTg7c3Ryb2tlLXdpZHRoOjEuMDsiIHgxPSIxMzE1Ljc1IiB4Mj0iMTYyMCIgeTE9IjczOS40OTYxIiB5Mj0iNzM5LjQ5NjEiLz48bGluZSBzdHlsZT0ic3Ryb2tlOiMxODE4MTg7c3Ryb2tlLXdpZHRoOjEuMDsiIHgxPSIxNjIwIiB4Mj0iMTYyMCIgeTE9IjczOS40OTYxIiB5Mj0iNzU5LjQ5NjEiLz48cG9seWdvbiBmaWxsPSIjMTgxODE4IiBwb2ludHM9IjE2MTYsNzQ5LjQ5NjEsMTYyMCw3NTkuNDk2MSwxNjI0LDc0OS40OTYxLDE2MjAsNzUzLjQ5NjEiIHN0eWxlPSJzdHJva2U6IzE4MTgxODtzdHJva2Utd2lkdGg6MS4wOyIvPjxsaW5lIHN0eWxlPSJzdHJva2U6IzE4MTgxODtzdHJva2Utd2lkdGg6MS4wOyIgeDE9IjE2MjAiIHgyPSIxNjIwIiB5MT0iMTM1LjY4NzUiIHkyPSIxNTUuNjg3NSIvPjxwb2x5Z29uIGZpbGw9IiMxODE4MTgiIHBvaW50cz0iMTYxNiwxNDUuNjg3NSwxNjIwLDE1NS42ODc1LDE2MjQsMTQ1LjY4NzUsMTYyMCwxNDkuNjg3NSIgc3R5bGU9InN0cm9rZTojMTgxODE4O3N0cm9rZS13aWR0aDoxLjA7Ii8+PGxpbmUgc3R5bGU9InN0cm9rZTojMTgxODE4O3N0cm9rZS13aWR0aDoxLjA7IiB4MT0iMTYyMCIgeDI9IjE2MjAiIHkxPSI5MDEuMDgyIiB5Mj0iOTIxLjA4MiIvPjxwb2x5Z29uIGZpbGw9IiMxODE4MTgiIHBvaW50cz0iMTYxNiw5MTEuMDgyLDE2MjAsOTIxLjA4MiwxNjI0LDkxMS4wODIsMTYyMCw5MTUuMDgyIiBzdHlsZT0ic3Ryb2tlOiMxODE4MTg7c3Ryb2tlLXdpZHRoOjEuMDsiLz48bGluZSBzdHlsZT0ic3Ryb2tlOiMxODE4MTg7c3Ryb2tlLXdpZHRoOjEuMDsiIHgxPSIxMTYzIiB4Mj0iMTE2MyIgeTE9IjExMDUuODY5MSIgeTI9IjExMzcuNjQyNiIvPjxwb2x5Z29uIGZpbGw9IiMxODE4MTgiIHBvaW50cz0iMTE1OSwxMTI3LjY0MjYsMTE2MywxMTM3LjY0MjYsMTE2NywxMTI3LjY0MjYsMTE2MywxMTMxLjY0MjYiIHN0eWxlPSJzdHJva2U6IzE4MTgxODtzdHJva2Utd2lkdGg6MS4wOyIvPjxsaW5lIHN0eWxlPSJzdHJva2U6IzE4MTgxODtzdHJva2Utd2lkdGg6MS4wOyIgeDE9IjExNjMiIHgyPSIxMTYzIiB5MT0iMTE3MC40ODYzIiB5Mj0iMTIwMS41NDMiLz48cG9seWdvbiBmaWxsPSIjMTgxODE4IiBwb2ludHM9IjExNTksMTE5MS41NDMsMTE2MywxMjAxLjU0MywxMTY3LDExOTEuNTQzLDExNjMsMTE5NS41NDMiIHN0eWxlPSJzdHJva2U6IzE4MTgxODtzdHJva2Utd2lkdGg6MS4wOyIvPjxsaW5lIHN0eWxlPSJzdHJva2U6IzE4MTgxODtzdHJva2Utd2lkdGg6MS4wOyIgeDE9IjE1NTMiIHgyPSIxNTUzIiB5MT0iMTEwNS44NjkxIiB5Mj0iMTEzNy42NDI2Ii8+PHBvbHlnb24gZmlsbD0iIzE4MTgxOCIgcG9pbnRzPSIxNTQ5LDExMjcuNjQyNiwxNTUzLDExMzcuNjQyNiwxNTU3LDExMjcuNjQyNiwxNTUzLDExMzEuNjQyNiIgc3R5bGU9InN0cm9rZTojMTgxODE4O3N0cm9rZS13aWR0aDoxLjA7Ii8+PGxpbmUgc3R5bGU9InN0cm9rZTojMTgxODE4O3N0cm9rZS13aWR0aDoxLjA7IiB4MT0iMTU1MyIgeDI9IjE1NTMiIHkxPSIxMTcwLjQ4NjMiIHkyPSIxMjAxLjU0MyIvPjxwb2x5Z29uIGZpbGw9IiMxODE4MTgiIHBvaW50cz0iMTU0OSwxMTkxLjU0MywxNTUzLDEyMDEuNTQzLDE1NTcsMTE5MS41NDMsMTU1MywxMTk1LjU0MyIgc3R5bGU9InN0cm9rZTojMTgxODE4O3N0cm9rZS13aWR0aDoxLjA7Ii8+PGxpbmUgc3R5bGU9InN0cm9rZTojMTgxODE4O3N0cm9rZS13aWR0aDoxLjA7IiB4MT0iMTMxMCIgeDI9IjE0MDYiIHkxPSIxMDkzLjg2OTEiIHkyPSIxMDkzLjg2OTEiLz48cG9seWdvbiBmaWxsPSIjMTgxODE4IiBwb2ludHM9IjEzOTYsMTA4OS44NjkxLDE0MDYsMTA5My44NjkxLDEzOTYsMTA5Ny44NjkxLDE0MDAsMTA5My44NjkxIiBzdHlsZT0ic3Ryb2tlOiMxODE4MTg7c3Ryb2tlLXdpZHRoOjEuMDsiLz48bGluZSBzdHlsZT0ic3Ryb2tlOiMxODE4MTg7c3Ryb2tlLXdpZHRoOjEuMDsiIHgxPSI5NTgiIHgyPSIxMTYzIiB5MT0iMTAyOS45MjU4IiB5Mj0iMTAyOS45MjU4Ii8+PGxpbmUgc3R5bGU9InN0cm9rZTojMTgxODE4O3N0cm9rZS13aWR0aDoxLjA7IiB4MT0iMTE2MyIgeDI9IjExNjMiIHkxPSIxMDI5LjkyNTgiIHkyPSIxMDgxLjg2OTEiLz48cG9seWdvbiBmaWxsPSIjMTgxODE4IiBwb2ludHM9IjExNTksMTA3MS44NjkxLDExNjMsMTA4MS44NjkxLDExNjcsMTA3MS44NjkxLDExNjMsMTA3NS44NjkxIiBzdHlsZT0ic3Ryb2tlOiMxODE4MTg7c3Ryb2tlLXdpZHRoOjEuMDsiLz48bGluZSBzdHlsZT0ic3Ryb2tlOiMxODE4MTg7c3Ryb2tlLXdpZHRoOjEuMDsiIHgxPSIxNzAwIiB4Mj0iMTgwMS41IiB5MT0iMTA5My44NjkxIiB5Mj0iMTA5My44NjkxIi8+PGxpbmUgc3R5bGU9InN0cm9rZTojMTgxODE4O3N0cm9rZS13aWR0aDoxLjA7IiB4MT0iMTgwMS41IiB4Mj0iMTgwMS41IiB5MT0iMTA5My44NjkxIiB5Mj0iMTEzNC43NTU5Ii8+PHBvbHlnb24gZmlsbD0iIzE4MTgxOCIgcG9pbnRzPSIxNzk3LjUsMTEyNC43NTU5LDE4MDEuNSwxMTM0Ljc1NTksMTgwNS41LDExMjQuNzU1OSwxODAxLjUsMTEyOC43NTU5IiBzdHlsZT0ic3Ryb2tlOiMxODE4MTg7c3Ryb2tlLXdpZHRoOjEuMDsiLz48bGluZSBzdHlsZT0ic3Ryb2tlOiMxODE4MTg7c3Ryb2tlLXdpZHRoOjEuMDsiIHgxPSIxODAxLjUiIHgyPSIxODAxLjUiIHkxPSIxMTY3LjU5OTYiIHkyPSIxMjAxLjU0MyIvPjxwb2x5Z29uIGZpbGw9IiMxODE4MTgiIHBvaW50cz0iMTc5Ny41LDExOTEuNTQzLDE4MDEuNSwxMjAxLjU0MywxODA1LjUsMTE5MS41NDMsMTgwMS41LDExOTUuNTQzIiBzdHlsZT0ic3Ryb2tlOiMxODE4MTg7c3Ryb2tlLXdpZHRoOjEuMDsiLz48bGluZSBzdHlsZT0ic3Ryb2tlOiMxODE4MTg7c3Ryb2tlLXdpZHRoOjEuMDsiIHgxPSIxMTYzIiB4Mj0iMTgwMS41IiB5MT0iMTIwMS41NDMiIHkyPSIxMjAxLjU0MyIvPjxsaW5lIHN0eWxlPSJzdHJva2U6IzE4MTgxODtzdHJva2Utd2lkdGg6MS4wOyIgeDE9IjI2MyIgeDI9IjI2MyIgeTE9IjEwNDEuOTI1OCIgeTI9IjEwNzMuNjk5MiIvPjxwb2x5Z29uIGZpbGw9IiMxODE4MTgiIHBvaW50cz0iMjU5LDEwNjMuNjk5MiwyNjMsMTA3My42OTkyLDI2NywxMDYzLjY5OTIsMjYzLDEwNjcuNjk5MiIgc3R5bGU9InN0cm9rZTojMTgxODE4O3N0cm9rZS13aWR0aDoxLjA7Ii8+PGxpbmUgc3R5bGU9InN0cm9rZTojMTgxODE4O3N0cm9rZS13aWR0aDoxLjA7IiB4MT0iMjYzIiB4Mj0iMjYzIiB5MT0iMTEwNi41NDMiIHkyPSIxMjIxLjU0MyIvPjxwb2x5Z29uIGZpbGw9IiMxODE4MTgiIHBvaW50cz0iMjU5LDEyMTEuNTQzLDI2MywxMjIxLjU0MywyNjcsMTIxMS41NDMsMjYzLDEyMTUuNTQzIiBzdHlsZT0ic3Ryb2tlOiMxODE4MTg7c3Ryb2tlLXdpZHRoOjEuMDsiLz48bGluZSBzdHlsZT0ic3Ryb2tlOiMxODE4MTg7c3Ryb2tlLXdpZHRoOjEuMDsiIHgxPSI3MzMiIHgyPSI3MzMiIHkxPSIxMDQxLjkyNTgiIHkyPSIxMDczLjY5OTIiLz48cG9seWdvbiBmaWxsPSIjMTgxODE4IiBwb2ludHM9IjcyOSwxMDYzLjY5OTIsNzMzLDEwNzMuNjk5Miw3MzcsMTA2My42OTkyLDczMywxMDY3LjY5OTIiIHN0eWxlPSJzdHJva2U6IzE4MTgxODtzdHJva2Utd2lkdGg6MS4wOyIvPjxsaW5lIHN0eWxlPSJzdHJva2U6IzE4MTgxODtzdHJva2Utd2lkdGg6MS4wOyIgeDE9IjczMyIgeDI9IjczMyIgeTE9IjExMDYuNTQzIiB5Mj0iMTIyMS41NDMiLz48cG9seWdvbiBmaWxsPSIjMTgxODE4IiBwb2ludHM9IjcyOSwxMjExLjU0Myw3MzMsMTIyMS41NDMsNzM3LDEyMTEuNTQzLDczMywxMjE1LjU0MyIgc3R5bGU9InN0cm9rZTojMTgxODE4O3N0cm9rZS13aWR0aDoxLjA7Ii8+PGxpbmUgc3R5bGU9InN0cm9rZTojMTgxODE4O3N0cm9rZS13aWR0aDoxLjA7IiB4MT0iNDg4IiB4Mj0iNTA4IiB5MT0iMTAyOS45MjU4IiB5Mj0iMTAyOS45MjU4Ii8+PHBvbHlnb24gZmlsbD0iIzE4MTgxOCIgcG9pbnRzPSI0OTgsMTAyNS45MjU4LDUwOCwxMDI5LjkyNTgsNDk4LDEwMzMuOTI1OCw1MDIsMTAyOS45MjU4IiBzdHlsZT0ic3Ryb2tlOiMxODE4MTg7c3Ryb2tlLXdpZHRoOjEuMDsiLz48bGluZSBzdHlsZT0ic3Ryb2tlOiMxODE4MTg7c3Ryb2tlLXdpZHRoOjEuMDsiIHgxPSIxNTAwIiB4Mj0iMjYzIiB5MT0iOTg1LjkyNTgiIHkyPSI5ODUuOTI1OCIvPjxsaW5lIHN0eWxlPSJzdHJva2U6IzE4MTgxODtzdHJva2Utd2lkdGg6MS4wOyIgeDE9IjI2MyIgeDI9IjI2MyIgeTE9Ijk4NS45MjU4IiB5Mj0iMTAxNy45MjU4Ii8+PHBvbHlnb24gZmlsbD0iIzE4MTgxOCIgcG9pbnRzPSIyNTksMTAwNy45MjU4LDI2MywxMDE3LjkyNTgsMjY3LDEwMDcuOTI1OCwyNjMsMTAxMS45MjU4IiBzdHlsZT0ic3Ryb2tlOiMxODE4MTg7c3Ryb2tlLXdpZHRoOjEuMDsiLz48bGluZSBzdHlsZT0ic3Ryb2tlOiMxODE4MTg7c3Ryb2tlLXdpZHRoOjEuMDsiIHgxPSIxNDExLjUiIHgyPSIxNDExLjUiIHkxPSIxMjAxLjU0MyIgeTI9IjEyMjEuNTQzIi8+PHBvbHlnb24gZmlsbD0iIzE4MTgxOCIgcG9pbnRzPSIxNDA3LjUsMTIxMS41NDMsMTQxMS41LDEyMjEuNTQzLDE0MTUuNSwxMjExLjU0MywxNDExLjUsMTIxNS41NDMiIHN0eWxlPSJzdHJva2U6IzE4MTgxODtzdHJva2Utd2lkdGg6MS4wOyIvPjxsaW5lIHN0eWxlPSJzdHJva2U6IzE4MTgxODtzdHJva2Utd2lkdGg6MS4wOyIgeDE9IjI2MyIgeDI9IjE0MTEuNSIgeTE9IjEyMjEuNTQzIiB5Mj0iMTIyMS41NDMiLz48bGluZSBzdHlsZT0ic3Ryb2tlOiMxODE4MTg7c3Ryb2tlLXdpZHRoOjEuMDsiIHgxPSIyMDUwIiB4Mj0iMjA1MCIgeTE9IjEwNDEuOTI1OCIgeTI9IjEwNzMuNjk5MiIvPjxwb2x5Z29uIGZpbGw9IiMxODE4MTgiIHBvaW50cz0iMjA0NiwxMDYzLjY5OTIsMjA1MCwxMDczLjY5OTIsMjA1NCwxMDYzLjY5OTIsMjA1MCwxMDY3LjY5OTIiIHN0eWxlPSJzdHJva2U6IzE4MTgxODtzdHJva2Utd2lkdGg6MS4wOyIvPjxsaW5lIHN0eWxlPSJzdHJva2U6IzE4MTgxODtzdHJva2Utd2lkdGg6MS4wOyIgeDE9IjIwNTAiIHgyPSIyMDUwIiB5MT0iMTEwNi41NDMiIHkyPSIxMTgxLjU0MyIvPjxwb2x5Z29uIGZpbGw9IiMxODE4MTgiIHBvaW50cz0iMjA0NiwxMTcxLjU0MywyMDUwLDExODEuNTQzLDIwNTQsMTE3MS41NDMsMjA1MCwxMTc1LjU0MyIgc3R5bGU9InN0cm9rZTojMTgxODE4O3N0cm9rZS13aWR0aDoxLjA7Ii8+PGxpbmUgc3R5bGU9InN0cm9rZTojMTgxODE4O3N0cm9rZS13aWR0aDoxLjA7IiB4MT0iMjQzNS43NSIgeDI9IjI0MzUuNzUiIHkxPSIxMDQxLjkyNTgiIHkyPSIxMDczLjY5OTIiLz48cG9seWdvbiBmaWxsPSIjMTgxODE4IiBwb2ludHM9IjI0MzEuNzUsMTA2My42OTkyLDI0MzUuNzUsMTA3My42OTkyLDI0MzkuNzUsMTA2My42OTkyLDI0MzUuNzUsMTA2Ny42OTkyIiBzdHlsZT0ic3Ryb2tlOiMxODE4MTg7c3Ryb2tlLXdpZHRoOjEuMDsiLz48bGluZSBzdHlsZT0ic3Ryb2tlOiMxODE4MTg7c3Ryb2tlLXdpZHRoOjEuMDsiIHgxPSIyNDM1Ljc1IiB4Mj0iMjQzNS43NSIgeTE9IjExMDYuNTQzIiB5Mj0iMTE4MS41NDMiLz48cG9seWdvbiBmaWxsPSIjMTgxODE4IiBwb2ludHM9IjI0MzEuNzUsMTE3MS41NDMsMjQzNS43NSwxMTgxLjU0MywyNDM5Ljc1LDExNzEuNTQzLDI0MzUuNzUsMTE3NS41NDMiIHN0eWxlPSJzdHJva2U6IzE4MTgxODtzdHJva2Utd2lkdGg6MS4wOyIvPjxsaW5lIHN0eWxlPSJzdHJva2U6IzE4MTgxODtzdHJva2Utd2lkdGg6MS4wOyIgeDE9IjIxOTciIHgyPSIyMjg4Ljc1IiB5MT0iMTAyOS45MjU4IiB5Mj0iMTAyOS45MjU4Ii8+PHBvbHlnb24gZmlsbD0iIzE4MTgxOCIgcG9pbnRzPSIyMjc4Ljc1LDEwMjUuOTI1OCwyMjg4Ljc1LDEwMjkuOTI1OCwyMjc4Ljc1LDEwMzMuOTI1OCwyMjgyLjc1LDEwMjkuOTI1OCIgc3R5bGU9InN0cm9rZTojMTgxODE4O3N0cm9rZS13aWR0aDoxLjA7Ii8+PGxpbmUgc3R5bGU9InN0cm9rZTojMTgxODE4O3N0cm9rZS13aWR0aDoxLjA7IiB4MT0iMTc0MCIgeDI9IjIwNTAiIHkxPSI5ODUuOTI1OCIgeTI9Ijk4NS45MjU4Ii8+PGxpbmUgc3R5bGU9InN0cm9rZTojMTgxODE4O3N0cm9rZS13aWR0aDoxLjA7IiB4MT0iMjA1MCIgeDI9IjIwNTAiIHkxPSI5ODUuOTI1OCIgeTI9IjEwMTcuOTI1OCIvPjxwb2x5Z29uIGZpbGw9IiMxODE4MTgiIHBvaW50cz0iMjA0NiwxMDA3LjkyNTgsMjA1MCwxMDE3LjkyNTgsMjA1NCwxMDA3LjkyNTgsMjA1MCwxMDExLjkyNTgiIHN0eWxlPSJzdHJva2U6IzE4MTgxODtzdHJva2Utd2lkdGg6MS4wOyIvPjxsaW5lIHN0eWxlPSJzdHJva2U6IzE4MTgxODtzdHJva2Utd2lkdGg6MS4wOyIgeDE9IjI1ODIuNzUiIHgyPSIyNjc0LjI1IiB5MT0iMTAyOS45MjU4IiB5Mj0iMTAyOS45MjU4Ii8+PGxpbmUgc3R5bGU9InN0cm9rZTojMTgxODE4O3N0cm9rZS13aWR0aDoxLjA7IiB4MT0iMjY3NC4yNSIgeDI9IjI2NzQuMjUiIHkxPSIxMDI5LjkyNTgiIHkyPSIxMDcwLjgxMjUiLz48cG9seWdvbiBmaWxsPSIjMTgxODE4IiBwb2ludHM9IjI2NzAuMjUsMTA2MC44MTI1LDI2NzQuMjUsMTA3MC44MTI1LDI2NzguMjUsMTA2MC44MTI1LDI2NzQuMjUsMTA2NC44MTI1IiBzdHlsZT0ic3Ryb2tlOiMxODE4MTg7c3Ryb2tlLXdpZHRoOjEuMDsiLz48bGluZSBzdHlsZT0ic3Ryb2tlOiMxODE4MTg7c3Ryb2tlLXdpZHRoOjEuMDsiIHgxPSIyNjc0LjI1IiB4Mj0iMjY3NC4yNSIgeTE9IjExMDMuNjU2MyIgeTI9IjExODEuNTQzIi8+PHBvbHlnb24gZmlsbD0iIzE4MTgxOCIgcG9pbnRzPSIyNjcwLjI1LDExNzEuNTQzLDI2NzQuMjUsMTE4MS41NDMsMjY3OC4yNSwxMTcxLjU0MywyNjc0LjI1LDExNzUuNTQzIiBzdHlsZT0ic3Ryb2tlOiMxODE4MTg7c3Ryb2tlLXdpZHRoOjEuMDsiLz48bGluZSBzdHlsZT0ic3Ryb2tlOiMxODE4MTg7c3Ryb2tlLXdpZHRoOjEuMDsiIHgxPSIyMDUwIiB4Mj0iMjY3NC4yNSIgeTE9IjExODEuNTQzIiB5Mj0iMTE4MS41NDMiLz48bGluZSBzdHlsZT0ic3Ryb2tlOiMxODE4MTg7c3Ryb2tlLXdpZHRoOjEuMDsiIHgxPSI5NDEuNSIgeDI9Ijk0MS41IiB5MT0iMTIyMS41NDMiIHkyPSIxMjM5LjU0MyIvPjxsaW5lIHN0eWxlPSJzdHJva2U6IzE4MTgxODtzdHJva2Utd2lkdGg6MS4wOyIgeDE9Ijk0MS41IiB4Mj0iMTYwOCIgeTE9IjEyMzkuNTQzIiB5Mj0iMTIzOS41NDMiLz48cG9seWdvbiBmaWxsPSIjMTgxODE4IiBwb2ludHM9IjE1OTgsMTIzNS41NDMsMTYwOCwxMjM5LjU0MywxNTk4LDEyNDMuNTQzLDE2MDIsMTIzOS41NDMiIHN0eWxlPSJzdHJva2U6IzE4MTgxODtzdHJva2Utd2lkdGg6MS4wOyIvPjxsaW5lIHN0eWxlPSJzdHJva2U6IzE4MTgxODtzdHJva2Utd2lkdGg6MS4wOyIgeDE9IjIyOTQuMjUiIHgyPSIyMjk0LjI1IiB5MT0iMTE4MS41NDMiIHkyPSIxMjM5LjU0MyIvPjxsaW5lIHN0eWxlPSJzdHJva2U6IzE4MTgxODtzdHJva2Utd2lkdGg6MS4wOyIgeDE9IjIyOTQuMjUiIHgyPSIxNjMyIiB5MT0iMTIzOS41NDMiIHkyPSIxMjM5LjU0MyIvPjxwb2x5Z29uIGZpbGw9IiMxODE4MTgiIHBvaW50cz0iMTY0MiwxMjM1LjU0MywxNjMyLDEyMzkuNTQzLDE2NDIsMTI0My41NDMsMTYzOCwxMjM5LjU0MyIgc3R5bGU9InN0cm9rZTojMTgxODE4O3N0cm9rZS13aWR0aDoxLjA7Ii8+PGxpbmUgc3R5bGU9InN0cm9rZTojMTgxODE4O3N0cm9rZS13aWR0aDoxLjA7IiB4MT0iMTYyMCIgeDI9IjE2MjAiIHkxPSI5NTMuOTI1OCIgeTI9Ijk3My45MjU4Ii8+PHBvbHlnb24gZmlsbD0iIzE4MTgxOCIgcG9pbnRzPSIxNjE2LDk2My45MjU4LDE2MjAsOTczLjkyNTgsMTYyNCw5NjMuOTI1OCwxNjIwLDk2Ny45MjU4IiBzdHlsZT0ic3Ryb2tlOiMxODE4MTg7c3Ryb2tlLXdpZHRoOjEuMDsiLz48bGluZSBzdHlsZT0ic3Ryb2tlOiMxODE4MTg7c3Ryb2tlLXdpZHRoOjEuMDsiIHgxPSIxNjIwIiB4Mj0iMTYyMCIgeTE9IjgzNi4zMzk4IiB5Mj0iODY4LjIzODMiLz48cG9seWdvbiBmaWxsPSIjMTgxODE4IiBwb2ludHM9IjE2MTYsODU4LjIzODMsMTYyMCw4NjguMjM4MywxNjI0LDg1OC4yMzgzLDE2MjAsODYyLjIzODMiIHN0eWxlPSJzdHJva2U6IzE4MTgxODtzdHJva2Utd2lkdGg6MS4wOyIvPjxsaW5lIHN0eWxlPSJzdHJva2U6IzE4MTgxODtzdHJva2Utd2lkdGg6MS4wOyIgeDE9IjE2MjAiIHgyPSIxNjIwIiB5MT0iMTI1MS41NDMiIHkyPSIxMjYxLjU0MyIvPjxsaW5lIHN0eWxlPSJzdHJva2U6IzE4MTgxODtzdHJva2Utd2lkdGg6MS4wOyIgeDE9IjE2MjAiIHgyPSIyNzMxLjc1IiB5MT0iMTI2MS41NDMiIHkyPSIxMjYxLjU0MyIvPjxwb2x5Z29uIGZpbGw9IiMxODE4MTgiIHBvaW50cz0iMjcyNy43NSwxMDczLjQ0NzMsMjczMS43NSwxMDYzLjQ0NzMsMjczNS43NSwxMDczLjQ0NzMsMjczMS43NSwxMDY5LjQ0NzMiIHN0eWxlPSJzdHJva2U6IzE4MTgxODtzdHJva2Utd2lkdGg6MS4wOyIvPjxsaW5lIHN0eWxlPSJzdHJva2U6IzE4MTgxODtzdHJva2Utd2lkdGg6MS4wOyIgeDE9IjI3MzEuNzUiIHgyPSIyNzMxLjc1IiB5MT0iODI0LjMzOTgiIHkyPSIxMjYxLjU0MyIvPjxsaW5lIHN0eWxlPSJzdHJva2U6IzE4MTgxODtzdHJva2Utd2lkdGg6MS4wOyIgeDE9IjI3MzEuNzUiIHgyPSIxNzEzIiB5MT0iODI0LjMzOTgiIHkyPSI4MjQuMzM5OCIvPjxwb2x5Z29uIGZpbGw9IiMxODE4MTgiIHBvaW50cz0iMTcyMyw4MjAuMzM5OCwxNzEzLDgyNC4zMzk4LDE3MjMsODI4LjMzOTgsMTcxOSw4MjQuMzM5OCIgc3R5bGU9InN0cm9rZTojMTgxODE4O3N0cm9rZS13aWR0aDoxLjA7Ii8+PGxpbmUgc3R5bGU9InN0cm9rZTojMTgxODE4O3N0cm9rZS13aWR0aDoxLjA7IiB4MT0iMTUyNyIgeDI9IjI0IiB5MT0iODI0LjMzOTgiIHkyPSI4MjQuMzM5OCIvPjxwb2x5Z29uIGZpbGw9IiMxODE4MTgiIHBvaW50cz0iMjAsMTA1OS40NDczLDI0LDEwNjkuNDQ3MywyOCwxMDU5LjQ0NzMsMjQsMTA2My40NDczIiBzdHlsZT0ic3Ryb2tlOiMxODE4MTg7c3Ryb2tlLXdpZHRoOjEuMDsiLz48bGluZSBzdHlsZT0ic3Ryb2tlOiMxODE4MTg7c3Ryb2tlLXdpZHRoOjEuMDsiIHgxPSIyNCIgeDI9IjI0IiB5MT0iODI0LjMzOTgiIHkyPSIxMjczLjU0MyIvPjxsaW5lIHN0eWxlPSJzdHJva2U6IzE4MTgxODtzdHJva2Utd2lkdGg6MS4wOyIgeDE9IjI0IiB4Mj0iMTYyMCIgeTE9IjEyNzMuNTQzIiB5Mj0iMTI3My41NDMiLz48bGluZSBzdHlsZT0ic3Ryb2tlOiMxODE4MTg7c3Ryb2tlLXdpZHRoOjEuMDsiIHgxPSIxNjIwIiB4Mj0iMTYyMCIgeTE9IjEyNzMuNTQzIiB5Mj0iMTI5My41NDMiLz48cG9seWdvbiBmaWxsPSIjMTgxODE4IiBwb2ludHM9IjE2MTYsMTI4My41NDMsMTYyMCwxMjkzLjU0MywxNjI0LDEyODMuNTQzLDE2MjAsMTI4Ny41NDMiIHN0eWxlPSJzdHJva2U6IzE4MTgxODtzdHJva2Utd2lkdGg6MS4wOyIvPjxsaW5lIHN0eWxlPSJzdHJva2U6IzE4MTgxODtzdHJva2Utd2lkdGg6MS4wOyIgeDE9IjE2MjAiIHgyPSIxNjIwIiB5MT0iNzkyLjMzOTgiIHkyPSI4MTIuMzM5OCIvPjxwb2x5Z29uIGZpbGw9IiMxODE4MTgiIHBvaW50cz0iMTYxNiw4MDIuMzM5OCwxNjIwLDgxMi4zMzk4LDE2MjQsODAyLjMzOTgsMTYyMCw4MDYuMzM5OCIgc3R5bGU9InN0cm9rZTojMTgxODE4O3N0cm9rZS13aWR0aDoxLjA7Ii8+PGxpbmUgc3R5bGU9InN0cm9rZTojMTgxODE4O3N0cm9rZS13aWR0aDoxLjA7IiB4MT0iMTYyMCIgeDI9IjE2MjAiIHkxPSIxMzI2LjM4NjciIHkyPSIxMzQ2LjM4NjciLz48cG9seWdvbiBmaWxsPSIjMTgxODE4IiBwb2ludHM9IjE2MTYsMTMzNi4zODY3LDE2MjAsMTM0Ni4zODY3LDE2MjQsMTMzNi4zODY3LDE2MjAsMTM0MC4zODY3IiBzdHlsZT0ic3Ryb2tlOiMxODE4MTg7c3Ryb2tlLXdpZHRoOjEuMDsiLz48bGluZSBzdHlsZT0ic3Ryb2tlOiMxODE4MTg7c3Ryb2tlLXdpZHRoOjEuMDsiIHgxPSIxNjIwIiB4Mj0iMTYyMCIgeTE9IjEzNzkuMjMwNSIgeTI9IjEzOTkuMjMwNSIvPjxwb2x5Z29uIGZpbGw9IiMxODE4MTgiIHBvaW50cz0iMTYxNiwxMzg5LjIzMDUsMTYyMCwxMzk5LjIzMDUsMTYyNCwxMzg5LjIzMDUsMTYyMCwxMzkzLjIzMDUiIHN0eWxlPSJzdHJva2U6IzE4MTgxODtzdHJva2Utd2lkdGg6MS4wOyIvPjwhLS1TUkM9W3hQSkJLaUNtMzROdF9XZWp3Tzk1a29tcFI3V0RReHgwZjRnaDhSNHhpYUMzTnUtU2J2Q0dDczY2OU9rLU9hZHR6NGdveXZnektsaXhIa3FIRDFtZXlzSUR2V19tNWZvdFo3MmF0NERjQS1DVGxBQV84MWg4Y1QwU3RDc1FMMzlvWDB2b291MHdFdE45RHFmVEpiR1dORmFKSWdvTUxwYWFDTVFNM3N1M3YySTBBem9lX0hEd2E1V21NRmpuYjUweXI5dnJyWHVWd0hxUGozYzRPc24tdjZwQnZnbkZLOUozcks5V1cwWG5KZlV1MlRfQ2VGeG9IY1R2OFpuejRJb1NxRVRRRlpRZldiWUoyblBxUEQ3OVFEVEN2emJhWjJLUUZxamZfcUdoOEdSdDJaQ0NJSVRGa2cxRk45U0ZzaTVNWWFZSlNaTnNmSTV0NF9JLWFtYnMwME1tbjJ6dk04RkRPdGpjcjR0UVQteGxVTEZRMDNqci1iVXlHVk9VVndQRHNCbTZVRXBtekcwemwzVjNob09ETXJ3WVBrSWh5YktnSVVNV3V5UHgxMVNnWWJ1aWtMSFR4NWFKX3gxS3VKWThuRk5rNXdqemljczZrX3MtWXJpTHFoZ1RNZWV4d1ZWOXg0LVJxNHhTVDRoeEFrOTFOLUdNYmVEc0NNWXhVZkNpM25CVGw0SlpzcXdkZ1NRMklRZW4tay1mVFljZ3NNcXBkaFdQcVVwdk5xQWFqN1M5eFJ6aUl4cGR4WXFPQXpVbkVTdXN3ei1jTEpSNTItWEhHOWVnZlF3ZmhDZ25yYTl6ak1WcTVQajRZV0o4ak5OLTBXMDBdLS0+PC9nPjwvc3ZnPg==;" vertex="1" parent="1">
            <mxGeometry x="-970" y="-420" width="2757" height="1432" as="geometry" />
          </mxCell>
        </UserObject>
      </root>
    </mxGraphModel>
  </diagram>
</mxfile>
